**ABCDEFGHIJKLMNOPQRSTUVWXYZabcdefghijklmnopqrstuvwxyz**************************
**PARASOLID !"#$%&'()*+,-./:;<=>?@[\]^_`{|}~0123456789**************************
**PART1;
MC=x64/Windows NT;
MC_MODEL=genuineintel family 6 model 10 stepping 5, intel(r) xeon(r) cpu           w3550  @ 3.07ghz;
MC_ID=pc1401;
OS=windows nt (x64);
OS_RELEASE=6.1 windows 7 professional (build 7601) service pack 1;
FRU=mdc_ugii_v7.0_djl_can_vrh;
APPL=unigraphics;
SITE=unknown;
USER=huge;
FORMAT=text;
GUISE=transmit;
KEY=20-1R_2stage;
FILE=D:\Daten-Huge\PLM_Export\A_Internet_Modelle\Getriebe\20-x\20-1R\20-1R_2stage.x_t;
DATE=22-mar-2017;
**PART2;
SCH=SCH_2701211_26105;
USFLD_SIZE=0;
**PART3;
**END_OF_HEADER*****************************************************************
T51 : TRANSMIT FILE created by modeller version 270121123 SCH_2701211_26105_1300
6200 0 12 30 CCCCCCCCCCCCCDI5 owner1040 0 CCCCCCCCCA13 boundary_mesh1006 0 A16 i
ndex_map_offset0 0 1 dA9 index_map82 0 A17 node_id_index_map82 0 A20 schema_embe
dding_map82 0 A5 child12 0 A14 lowest_node_id0 0 1 dZ1 3085 2 3 0 0 0 0 1e3 1e-8
 0 0 0 1 0 1 1 4 5 6 7 8 9 10 0 0 0 0 0 0 0 81 255 1 2 3085 11 1 12 0 0 0 13 70
 11 CI9 list_type0 0 1 uI10 notransmit0 0 1 lCCCDCCDI12 finger_index0 0 1 dI12 f
inger_block1012 0 CZ3 0 4 T1 0 0 5 20 1 14 14 13 255 4 3 0 1 0 15 0 0 16 0 52 25
5 5 2307 0 17 18 0 0 +0 0 -.0153113248654052 0 0 1 .00875 .866025403784439 .5 1
 0 0 31 255 6 2397 0 19 20 0 0 +0 0 -.01785 0 0 1 1 0 0 .0037 29 255 7 1482 0 10
 21 0 .00931227189477186 .003644391877644615 -.002 19 8 CCCCCCCA5 owner12 0 Z8 1
 0 1 16 0 22 V0 16 255 9 2702 23 ?24 0 25 26 0 0 1 18 255 10 1480 0 27 0 28 7 ?1
 17 255 27 0 29 30 31 10 32 33 0 34 +18 28 1202 0 35 10 36 21 ?1 17 35 0 29 37 3
8 28 39 40 0 41 +18 36 930 0 42 28 43 44 ?1 29 21 1204 0 28 44 7 -.0015 -.009886
85996664259 -.002 29 44 932 0 36 45 21 -.00781227189477186 .00624246808899795 -.
002 29 45 708 0 43 46 44 -.000994987437106621 -.0015 .0143 18 43 705 0 47 36 48
 45 ?1 29 46 704 0 48 49 45 .000994987437106624 -.0015 .0143 18 48 701 0 50 43 5
1 46 ?1 29 49 693 0 51 52 46 -.0013228756555323 -.0015 .0141 18 51 689 0 53 48 5
4 49 ?1 29 52 688 0 54 55 49 .0013228756555323 -.0015 .0141 18 54 684 0 56 51 57
 52 ?1 29 55 647 0 57 58 52 -.001322875655532304 -.0015 .0063 18 57 569 0 59 54
 60 55 ?1 29 58 648 0 60 61 55 .001322875655532304 -.0015 .0063 18 60 562 0 62 5
7 63 58 ?1 29 61 1127 0 63 64 58 -.00931227189477185 .003644391877644635 -.002 1
8 63 1038 0 65 60 66 61 ?1 29 64 1128 0 66 67 61 -.00931227189477185 .0036443918
77644635 0 18 66 1050 0 68 63 69 64 ?1 29 67 1130 0 69 70 64 -.00781227189477185
 .00624246808899795 0 18 69 1041 0 71 66 72 67 ?1 29 70 1134 0 73 74 67 -.006784
42101292462 .00564903810567666 0 18 73 1045 0 75 76 77 70 ?1 29 74 1135 0 77 78
 70 -.00828442101292462 .00305096189432334 0 18 77 1051 0 79 73 80 74 ?1 29 78 1
138 0 72 81 74 -.00678442101292462 .00564903810567666 -.002 18 72 1046 0 82 69 7
6 78 ?1 29 81 1139 0 76 83 78 -.00828442101292462 .00305096189432334 -.002 18 76
 1044 0 84 72 73 81 ?1 29 83 1400 0 80 85 81 .001499999999999988 -.0098868599666
426 -.002 18 80 1310 0 86 77 87 83 ?1 29 85 1401 0 87 88 83 .001499999999999988
 -.0098868599666426 0 18 87 1322 0 89 80 90 85 ?1 29 88 1403 0 90 91 85 -.0015 -
.00988685996664259 0 18 90 1313 0 92 87 93 88 ?1 29 91 1407 0 94 95 88 -.0015 -.
0087 0 18 94 1317 0 96 97 98 91 ?1 29 95 1408 0 98 99 91 .0015 -.0087 0 18 98 13
23 0 100 94 101 95 ?1 29 99 1411 0 93 102 95 -.0015 -.0087 -.002 18 93 1318 0 10
3 90 97 99 ?1 29 102 1412 0 97 104 99 .0015 -.0087 -.002 18 97 1316 0 105 93 94
 102 ?1 29 104 1678 0 101 106 102 .00781227189477187 .00624246808899793 -.002 18
 101 1588 0 107 98 108 104 ?1 29 106 1679 0 108 109 104 .00781227189477187 .0062
4246808899793 0 18 108 1600 0 110 101 111 106 ?1 29 109 1681 0 111 112 106 .0093
1227189477186 .003644391877644615 0 18 111 1591 0 113 108 114 109 ?1 29 112 1685
 0 115 116 109 .00828442101292462 .00305096189432334 0 18 115 1595 0 117 118 119
 112 ?1 29 116 1686 0 119 120 112 .00678442101292463 .00564903810567664 0 18 119
 1601 0 121 115 122 116 ?1 29 120 1689 0 114 123 116 .00828442101292462 .0030509
6189432334 -.002 18 114 1596 0 124 111 118 120 ?1 29 123 1690 0 118 125 120 .006
78442101292463 .00564903810567664 -.002 18 118 1594 0 126 114 115 123 ?1 29 125
 2821 0 122 127 123 -.00866025403784441 .005 -.002 18 122 2802 0 128 119 129 125
 ?1 29 127 2868 0 129 130 125 -2991354665902615e-33 -.01 -.002 18 129 2849 0 38
 122 131 127 ?1 29 130 2915 0 131 0 127 .0086602540378444 .005 -.002 18 131 2896
 0 31 129 0 130 ?1 17 31 0 29 27 132 131 107 133 0 32 +15 255 29 1489 0 132 134
 135 17 132 0 29 31 136 101 110 137 0 0 -17 107 0 138 126 139 101 31 133 0 140 -
16 133 1481 141 ?31 25 33 142 33 33 1 17 32 0 138 139 34 131 27 33 0 139 -15 138
 1649 0 32 143 0 17 139 0 138 107 32 131 144 145 0 144 -17 34 0 138 32 146 10 14
7 148 0 149 -16 33 2871 150 ?27 133 151 142 133 133 1 81 1 150 2956 152 33 0 0 1
41 153 154 16 151 1203 153 ?38 33 40 155 40 40 1 31 142 1483 0 133 155 156 0 -0
 0 -.002 0 0 1 1 0 0 .01 31 155 1205 0 151 157 142 0 -0 0 -.002 0 0 1 1 0 0 .01
 31 156 1829 0 158 142 159 0 -0 0 -.0129 0 0 -1 -1 0 0 .01 16 158 1843 160 ?161
 162 163 156 0 0 1 31 159 2009 0 163 156 20 0 -0 0 -.0136 0 0 -1 -1 0 0 .00875 1
6 163 2021 164 ?165 158 166 159 0 0 1 31 20 2287 0 25 159 6 0 -0 0 -.01531132486
54052 0 0 -1 -1 0 0 .00875 16 25 2284 167 ?168 9 133 20 0 0 1 81 1 167 2477 152
 25 0 0 169 170 171 17 168 0 172 168 168 0 173 25 0 0 +15 172 2285 0 168 15 174
 17 173 0 175 173 173 0 168 25 0 0 -15 175 2302 0 173 17 0 14 255 17 2300 176 ?1
77 178 179 4 5 +0 0 177 178 22 81 1 176 3056 180 17 181 0 182 183 184 14 177 234
2 183 ?185 17 186 4 187 -188 188 185 17 22 14 178 80 182 ?17 189 190 4 191 +0 0
 17 189 22 15 179 2301 0 192 17 175 13 22 4 0 0 0 0 0 0 8 15 14 15 1860 193 ?194
 0 172 4 195 +0 0 194 0 22 81 1 193 2974 180 15 196 0 0 197 198 14 194 48 197 ?1
99 15 200 4 201 +134 134 199 15 22 51 255 195 1885 0 15 202 203 0 +0 0 -.01565 0
 0 -1 .00875 -1 0 0 50 255 202 2067 0 204 205 195 0 +0 0 -.0136 0 0 -1 -1 0 0 50
 203 1884 0 206 195 207 0 +0 0 -.0129 0 0 -1 -1 0 0 14 206 1865 208 ?209 143 210
 4 203 +0 0 209 143 22 50 207 1661 0 143 203 211 0 +.00753442101292462 .00435 -.
002 0 0 1 1 0 0 14 143 1646 212 ?206 213 138 4 207 +0 0 206 213 22 50 211 1658 0
 213 207 214 0 +.00828442101292463 .00305096189432332 -.002 .5 -.86602540378444
 0 .86602540378444 .5 0 14 213 1638 215 ?143 216 217 4 211 -0 0 143 216 22 51 21
4 1657 0 216 211 218 0 +.00753442101292462 .00435 -.002 0 0 1 .0015 1 0 0 14 216
 1634 219 ?213 220 221 4 214 -0 0 213 220 22 50 218 1656 0 220 214 222 0 +.00791
025403784441 .00629903810567664 -.002 -.5 .86602540378444 0 -.86602540378444 -.5
 0 14 220 1630 223 ?216 224 225 4 218 -0 0 216 224 22 50 222 1383 0 224 218 226
 0 +867361737988404e-33 -.0087 -.002 0 0 1 1 0 0 14 224 1368 227 ?220 228 229 4
 222 +0 0 220 228 22 50 226 1380 0 228 222 230 0 +-.0015 -.0087 -.002 -1 1000802
005371232e-30 0 -1000802005371232e-30 -1 0 14 228 1360 231 ?224 232 233 4 226 -0
 0 224 232 22 51 230 1379 0 232 226 234 0 +867361737988404e-33 -.0087 -.002 0 0
 1 .0015 1 0 0 14 232 1356 235 ?228 236 237 4 230 -0 0 228 236 22 50 234 1378 0
 236 230 238 0 +.001499999999999988 -.01 -.002 1 -1334402673828314e-30 0 1334402
673828314e-30 1 0 14 236 1352 239 ?232 240 241 4 234 -0 0 232 240 22 50 238 1111
 0 240 234 242 0 +-.00753442101292462 .00435 -.002 0 0 1 1 0 0 14 240 1096 243 ?
236 244 245 4 238 +0 0 236 244 22 50 242 1108 0 244 238 246 0 +-.006784421012924
62 .00564903810567666 -.002 .5 .866025403784439 0 -.866025403784439 .5 0 14 244
 1088 247 ?240 248 249 4 242 -0 0 240 248 22 51 246 1107 0 248 242 250 0 +-.0075
3442101292462 .00435 -.002 0 0 1 .0015 1 0 0 14 248 1084 251 ?244 252 253 4 246
 -0 0 244 252 22 50 250 1106 0 252 246 254 0 +-.00941025403784439 .0037009618943
2334 -.002 -.5 -.866025403784439 0 .866025403784439 -.5 0 14 252 1080 255 ?248 2
56 257 4 250 -0 0 248 256 22 50 254 895 0 258 250 259 0 +.00606217782649107 -.00
35 -.003 0 0 -1 .5 .866025403784438 0 14 258 878 260 ?256 261 262 4 254 -0 0 256
 261 22 51 259 893 0 256 254 263 0 +.00606217782649107 -.0035 0 0 0 -1 .001025 .
5 .866025403784438 0 14 256 886 264 ?252 258 265 4 259 -0 0 252 258 22 50 263 85
2 0 266 259 267 0 +-.00606217782649107 -.0035 -.003 0 0 -1 .5 -.866025403784439
 0 14 266 835 268 ?261 269 270 4 263 -0 0 261 269 22 51 267 850 0 261 263 271 0
 +-.00606217782649107 -.0035 0 0 0 -1 .001025 .5 -.866025403784439 0 14 261 843
 272 ?258 266 273 4 267 -0 0 258 266 22 50 271 805 0 274 267 275 0 +0 .007 -.003
 0 0 -1 -1 0 0 14 274 788 276 ?269 277 278 4 271 -0 0 269 277 22 51 275 803 0 26
9 271 279 0 +0 .007 0 0 0 -1 .001025 -1 0 0 14 269 796 280 ?266 274 281 4 275 -0
 0 266 274 22 50 279 627 0 282 275 283 0 +.002 -.0015 .0063 0 346944695195359e-2
9 -1 0 1 346944695195359e-29 14 282 610 284 ?277 285 286 4 279 -0 0 277 285 22 5
0 283 626 0 285 279 287 288 +.002 -.0015 .0143 0 1 56920614055489e-29 0 -5692061
4055489e-29 1 14 285 606 289 ?282 290 291 4 283 -0 0 282 290 22 50 287 422 0 199
 283 292 0 +0 0 .0143 0 0 -1 -1 0 0 141 255 288 293 294 294 283 38 255 293 711 0
 295 296 297 0 +18 283 298 299 300 141 294 297 288 288 283 38 297 718 0 301 293
 302 0 +18 283 303 304 305 16 301 716 306 ?50 307 295 297 0 0 1 31 302 725 0 307
 297 157 0 -0 0 .0143 0 0 -1 -1 0 0 .0018 52 18 747 0 277 308 5 309 +0 0 .0141 0
 0 -1 .002 .707106781186547 .707106781186548 -1 0 0 40 255 2 303 0 1 2 164124088
5988565e-20 .0794058827328561 ??.0013228756555323 -.0015 .0141 .0009949874371066
23 -.0015 .0143 41 255 1 304 L.0013228756555323 -.0015 .0141 41 1 305 L.00099498
7437106623 -.0015 .0143 14 277 735 310 ?274 282 311 4 18 +0 0 274 282 22 51 308
 18 0 312 313 18 0 +0 0 0 0 0 1 .0045 1 0 0 141 309 293 314 314 18 141 314 297 3
09 309 18 14 312 2 315 ?316 317 318 4 308 +0 0 316 317 22 50 313 17 0 317 201 30
8 0 +0 0 .0012 0 0 1 1 0 0 14 317 15 319 ?312 134 320 4 313 +0 0 312 134 22 51 2
01 54 0 194 321 313 0 +0 0 0 0 0 -1 .01 -1 0 0 50 321 55 0 316 191 201 0 +0 0 0
 0 0 1 1 0 0 14 316 44 322 ?323 312 324 4 321 +0 0 323 312 22 50 191 95 0 178 32
5 321 0 +-542101086242752e-34 0 -.0184 0 0 -1 -1 0 0 50 325 174 0 326 327 191 0
 +0 0 -.0042 0 0 -1 -1 0 0 14 326 167 328 ?329 330 331 4 325 -0 0 329 330 22 50
 327 176 0 330 332 325 0 +0 0 -.004199 0 0 -1 -1 0 0 14 330 157 333 ?326 323 334
 4 327 +0 0 326 323 22 51 332 177 0 323 335 327 0 +0 0 -.0041995 0 0 -1 .009995
 -1 0 0 14 323 152 336 ?330 316 337 4 332 +0 0 330 316 22 51 335 248 0 338 339 3
32 0 +867361737988404e-33 0 0 0 0 1 .003 1 0 0 14 338 241 340 ?134 199 341 4 335
 +0 0 134 199 22 50 339 250 0 342 343 335 0 +867361737988404e-33 0 .00355 0 0 1
 1 0 0 14 342 233 344 ?290 345 346 4 339 +0 0 290 345 22 50 343 340 0 345 347 33
9 0 +867361737988404e-33 0 .00255 0 0 1 1 0 0 14 345 321 348 ?342 329 349 4 343
 +0 0 342 329 22 51 347 341 0 329 292 343 0 +867361737988404e-33 0 .00305 0 0 1
 .0022 1 0 0 14 329 316 350 ?345 326 351 4 347 +0 0 345 326 22 51 292 420 0 290
 287 347 0 +0 0 .0143 0 0 -1 .002 -1 0 0 14 290 405 352 ?285 342 353 4 292 +0 0
 285 342 22 81 1 352 3002 180 290 354 0 344 289 355 15 353 467 0 356 290 357 17
 356 0 353 358 359 51 59 360 0 361 -15 357 408 0 362 290 0 17 362 0 357 362 362
 0 363 364 0 0 +17 363 0 346 363 363 0 362 364 0 0 -16 364 383 365 ?362 366 367
 368 0 0 1 81 1 365 2465 152 364 0 0 369 370 371 16 366 459 372 ?62 373 364 374
 0 0 1 16 367 208 369 ?375 364 376 377 0 0 1 31 368 386 0 364 378 374 0 +0 0 .00
355 0 0 1 1 0 0 .002 31 378 288 0 379 377 368 0 -867361737988404e-33 0 .00255 0
 0 1 1 0 0 .003 31 374 461 0 366 368 296 0 -0 0 .0063 0 346944695195359e-29 -1 0
 1 346944695195359e-29 .002 31 296 696 0 373 374 293 0 +0 0 .0141 0 0 -1 -1 0 0
 .002 16 373 694 380 ?358 295 366 296 0 0 1 81 1 380 2493 152 373 0 0 306 381 38
2 17 358 0 353 383 356 54 361 373 0 384 +16 295 709 385 ?53 301 373 293 0 0 1 81
 1 385 2495 152 295 0 0 381 386 387 17 53 0 291 59 388 51 389 295 0 356 +15 291
 609 0 384 285 0 17 59 0 291 390 53 57 356 360 0 359 +17 388 0 291 53 50 43 391
 392 0 389 +17 389 0 311 393 361 43 53 295 0 0 -15 311 736 0 389 277 0 17 393 0
 311 56 389 48 47 307 0 0 -17 361 0 311 389 56 51 358 373 0 0 -17 56 0 311 361 3
93 54 50 301 0 358 -17 50 0 291 388 384 48 56 301 0 391 +17 384 0 291 50 390 54
 383 394 0 0 +17 391 0 395 47 47 48 388 392 0 393 -15 395 451 0 391 199 0 17 47
 0 395 391 391 43 393 307 0 388 +16 392 702 396 ?388 360 397 398 0 0 1 81 1 396
 2491 152 392 0 0 372 306 399 16 360 690 400 ?59 394 392 401 0 0 1 16 397 526 40
2 ?403 392 404 405 0 0 1 30 255 398 635 0 392 405 401 0 +.002 -.0015 .0143 -1 0
 0 30 405 636 0 397 406 398 0 +.002 -.0015 .0063 -1 0 0 30 401 632 0 360 398 407
 0 +-.0013228756555323 -.0015 .0143 0 0 -1 30 407 631 0 394 401 408 0 -.00132287
56555323 -.0015 .0143 0 0 -1 16 394 528 409 ?384 410 360 407 0 0 1 31 408 345 0
 411 407 412 0 +867361737988404e-33 0 .00355 0 0 1 1 0 0 .0022 16 411 297 413 ?4
14 379 410 408 0 0 1 31 412 342 0 410 408 415 0 +867361737988404e-33 0 .00255 0
 0 1 1 0 0 .0022 16 410 300 416 ?417 411 394 412 0 0 1 31 415 181 0 418 412 419
 0 +0 0 -.0042 0 0 -1 -1 0 0 .009995 16 418 135 420 ?421 422 423 415 0 0 1 31 41
9 178 0 423 415 424 0 +0 0 -.004199 0 0 -1 -1 0 0 .009995 16 423 138 425 ?426 41
8 379 419 0 0 1 31 424 58 0 427 419 428 0 +0 0 0 0 0 -1 -1 0 0 .01 16 427 38 386
 ?136 429 430 424 430 431 1 31 428 57 0 429 424 432 0 -0 0 0 0 0 1 1 0 0 .0045 1
6 429 37 433 ?434 376 427 428 0 0 1 31 432 16 0 376 428 435 0 +0 0 .0012 0 0 -1
 -1 0 0 .0045 16 376 12 436 ?437 367 429 432 0 0 1 31 435 115 0 422 432 438 0 -0
 0 -.0042 0 0 -1 -1 0 0 .01 16 422 134 439 ?440 441 418 435 0 0 1 31 438 123 0 4
41 435 377 0 -0 0 -.004199 0 0 -1 -1 0 0 .01 16 441 137 442 ?443 431 422 438 0 0
 1 31 377 211 0 367 438 378 0 +867361737988404e-33 0 .0012 0 0 1 1 0 0 .003 81 1
 442 2463 152 441 0 0 439 369 444 17 443 0 135 443 443 0 445 441 0 0 +16 431 118
3 446 ?68 430 441 424 427 430 1 81 1 446 2486 152 431 0 0 447 400 448 17 68 0 29
 449 37 66 450 431 0 451 +16 430 1460 452 ?89 427 431 424 431 427 1 81 1 452 249
8 152 430 0 0 386 453 454 17 89 0 29 455 30 87 456 430 0 457 +17 455 0 29 38 89
 80 457 458 0 0 -17 30 0 29 89 27 111 149 459 0 456 -17 456 0 324 460 461 111 89
 430 0 0 -17 457 0 241 100 462 87 455 458 0 461 +15 241 1355 0 457 236 0 17 100
 0 241 463 457 98 461 464 0 465 +17 462 0 241 457 463 80 105 466 0 455 +16 458 1
263 467 ?457 468 469 470 0 0 1 17 461 0 324 456 471 87 100 464 0 0 -15 324 1473
 0 472 316 473 17 471 0 324 461 474 98 475 476 0 0 -16 464 1247 477 ?100 476 137
 478 0 0 1 81 1 477 2512 152 464 0 0 479 480 481 16 476 1302 482 ?475 483 464 48
4 0 0 1 16 137 1541 485 ?110 464 459 486 0 0 1 30 478 1395 0 464 487 484 0 +.001
499999999999988 -.01 0 1334402673828314e-30 1 0 30 487 1397 0 488 489 478 0 --.0
015 -.0087 -.002 -1000802005371232e-30 -1 0 31 484 1394 0 476 478 490 0 +8673617
37988404e-33 -.0087 0 0 0 1 -.5 .866025403784439 0 .0015 30 490 1393 0 483 484 4
91 0 +-.0015 -.0087 0 -1000802005371232e-30 -1 0 16 483 1306 492 ?92 466 476 490
 0 0 1 30 491 1390 0 493 490 494 0 --.0015 -.0087 -.002 0 0 1 16 493 1284 495 ?1
03 496 488 491 0 0 1 30 494 1389 0 496 491 497 0 -.0015 -.0087 -.002 0 0 1 16 49
6 1280 498 ?463 469 493 494 0 0 1 30 497 1386 0 469 494 470 0 +-.0015 -.00988685
996664259 0 0 0 -1 16 469 1266 499 ?500 458 496 497 0 0 1 30 470 1385 0 458 497
 501 0 -.001499999999999988 -.0098868599666426 0 0 0 -1 30 501 1126 0 502 470 50
3 0 +-.00941025403784439 .00370096189432334 -.002 .866025403784439 -.5 0 16 502
 989 504 ?84 505 506 501 0 0 1 31 503 1125 0 505 501 507 0 +-.00753442101292462
 .00435 -.002 0 0 1 1 0 0 .0015 16 505 1010 453 ?508 509 502 503 0 0 1 30 507 11
24 0 509 503 510 0 +-.00678442101292462 .00564903810567666 -.002 -.8660254037844
39 .5 0 16 509 1014 511 ?512 513 505 507 0 0 1 30 510 1122 0 468 507 514 0 +-.00
941025403784439 .00370096189432334 0 .866025403784439 -.5 0 16 468 975 515 ?79 5
16 458 510 0 0 1 31 514 1121 0 516 510 517 0 +-.00753442101292462 .00435 0 0 0 1
 1 0 0 .0015 16 516 1030 518 ?519 506 468 514 0 0 1 30 517 1120 0 506 514 520 0
 +-.00678442101292462 .00564903810567666 0 -.866025403784439 .5 0 16 506 1034 52
1 ?71 502 516 517 0 0 1 30 520 1117 0 513 517 522 0 +-.00678442101292462 .005649
03810567666 -.002 0 0 1 16 513 1012 523 ?75 524 509 520 0 0 1 30 522 1116 0 524
 520 525 0 +-.00828442101292462 .00305096189432334 -.002 0 0 1 16 524 1008 526 ?
527 528 513 522 0 0 1 30 525 1113 0 528 522 529 0 +-.00781227189477186 .00624246
808899795 0 0 0 -1 16 528 994 530 ?531 532 524 525 0 0 1 30 529 1112 0 532 525 5
33 0 --.00931227189477186 .003644391877644635 0 0 0 -1 16 532 991 534 ?451 535 5
28 529 0 0 1 31 533 897 0 536 529 537 0 +.00606217782649107 -.0035 -.003 0 0 -1
 .5 .866025403784438 0 .001025 16 536 872 538 ?539 540 535 533 0 0 1 31 537 896
 0 535 533 541 0 +.00606217782649107 -.0035 0 0 0 -1 .5 .866025403784438 0 .0010
25 16 535 874 542 ?543 536 532 537 0 0 1 31 541 854 0 544 537 545 0 +-.006062177
82649107 -.0035 -.003 0 0 -1 .5 -.866025403784439 0 .001025 16 544 829 546 ?547
 548 540 541 0 0 1 31 545 853 0 540 541 549 0 +-.00606217782649107 -.0035 0 0 0
 -1 .5 -.866025403784439 0 .001025 16 540 831 550 ?551 544 536 545 0 0 1 31 549
 807 0 404 545 406 0 +0 .007 -.003 0 0 -1 -1 0 0 .001025 16 404 782 370 ?552 397
 548 549 0 0 1 31 406 806 0 548 549 405 0 +0 .007 0 0 0 -1 -1 0 0 .001025 16 548
 784 553 ?554 404 544 406 0 0 1 81 1 553 2467 152 548 0 0 370 538 555 17 554 0 5
56 554 554 0 557 548 0 0 +15 556 771 0 554 316 558 17 557 0 559 557 557 0 554 54
8 0 0 -15 559 800 0 557 269 0 15 558 46 0 434 316 0 17 434 0 558 434 434 0 560 4
29 0 0 +17 560 0 561 560 560 0 434 429 0 0 -15 561 7 0 560 312 0 80 255 1 152 56
2 563 9000 1 1 1 1 1 1 1 1 0 FFFFTFTFFFFFFF3 81 1 370 2466 152 404 0 0 365 553 5
64 81 1 538 2468 152 536 0 0 553 542 565 84 255 32 555 0f66521af5a5453c348bbbf8a
3e3c9e581 1 542 2469 152 535 0 0 538 546 566 84 32 565 17fc7523b6e7b591c03f95f97
1ab9b3081 1 546 2470 152 544 0 0 542 550 567 84 32 566 e37d7293d20effa935fb56303
cb23c4181 1 550 2471 152 540 0 0 546 160 568 84 32 567 49da15eeb985196510952b99c
8da12f881 1 160 2472 152 158 0 0 550 569 570 84 32 568 7a0f16f2418a09bccd4c8716e
bfe4a7381 1 569 2473 152 166 0 0 160 571 572 84 32 570 f7b15d32a96bad1d93ee85a7f
052fd8716 166 2024 569 ?573 163 574 575 0 0 1 81 1 571 2474 152 574 0 0 569 164
 576 84 32 572 26ec331c8bbafc5b04474cc065559d5e16 574 2022 571 ?577 166 578 579
 0 0 1 81 1 164 2475 152 163 0 0 571 169 580 84 32 576 f9b33a9e83e7e92f389175ded
9d0967981 1 169 2476 152 578 0 0 164 167 581 84 32 580 19e186b799dcc581eed231765
87d413a16 578 2221 169 ?582 574 583 584 0 0 1 84 32 581 088e83cd4b093bc187f2f919
914e52dc17 582 0 585 582 582 0 586 578 0 0 +16 583 2224 170 ?587 578 588 589 0 0
 1 31 584 2269 0 578 590 589 0 +0 0 -.0184 0 0 -1 -1 0 0 .00825 31 590 2363 0 59
1 592 584 0 +0 0 -.0184 0 0 1 1 0 0 .00689 31 589 2266 0 583 584 575 0 +0 0 -.01
56 0 0 -1 -1 0 0 .00825 31 575 2075 0 166 589 579 0 +0 0 -.0136 0 0 -1 -1 0 0 .0
0825 31 579 2072 0 574 575 593 0 +0 0 -.0129 0 0 -1 -1 0 0 .00825 30 593 1677 0
 594 579 595 0 -.00791025403784441 .00629903810567664 -.002 -.86602540378444 -.5
 0 16 594 1539 596 ?140 597 598 593 0 0 1 31 595 1676 0 597 593 599 0 -.00753442
101292462 .00435 -.002 0 0 1 -.5 -.866025403784438 0 .0015 16 597 1560 600 ?601
 148 594 595 0 0 1 30 599 1675 0 148 595 602 0 -.00828442101292463 .003050961894
32332 -.002 .86602540378444 .5 0 16 148 1564 603 ?147 604 597 599 0 0 1 30 602 1
673 0 162 599 605 0 +.00791025403784441 .00629903810567664 0 -.86602540378444 -.
5 0 16 162 1525 606 ?121 607 158 602 0 0 1 31 605 1672 0 607 602 608 0 +.0075344
2101292462 .00435 0 0 0 1 -.5 -.866025403784438 0 .0015 16 607 1580 609 ?610 598
 162 605 0 0 1 30 608 1671 0 598 605 611 0 +.00828442101292463 .0030509618943233
2 0 .86602540378444 .5 0 16 598 1584 612 ?113 594 607 608 0 0 1 30 611 1668 0 60
4 608 613 0 -.00828442101292462 .00305096189432334 -.002 0 0 1 16 604 1562 614 ?
124 615 148 611 0 0 1 30 613 1667 0 615 611 616 0 -.00678442101292463 .005649038
10567664 -.002 0 0 1 16 615 1558 617 ?618 459 604 613 0 0 1 30 616 1664 0 459 61
3 486 0 +.00931227189477186 .003644391877644615 0 0 0 -1 16 459 1544 619 ?149 13
7 615 616 0 0 1 30 486 1663 0 137 616 620 0 -.00781227189477187 .006242468088997
93 0 0 0 -1 30 620 1399 0 466 486 489 0 -.001499999999999988 -.01 -.002 13344026
73828314e-30 1 0 16 466 1261 479 ?462 621 483 620 0 0 1 31 489 1398 0 621 620 48
7 0 -867361737988404e-33 -.0087 -.002 0 0 1 -.5 .866025403784439 0 .0015 16 621
 1282 622 ?623 488 466 489 0 0 1 81 1 622 2519 152 621 0 0 498 606 624 17 623 0
 237 465 103 97 625 621 0 0 +16 488 1286 480 ?626 493 621 487 0 0 1 81 1 480 251
3 152 488 0 0 477 492 627 17 626 0 233 96 500 93 41 488 0 0 +15 233 1363 0 500 2
28 0 17 96 0 233 92 626 94 103 493 0 475 -17 500 0 233 626 92 28 37 469 0 0 +17
 41 0 229 39 625 28 626 488 0 500 -15 229 1371 0 39 224 0 17 39 0 229 628 41 129
 35 40 0 628 -17 625 0 229 41 105 93 623 621 0 626 -17 105 0 229 625 86 97 462 4
66 0 463 -17 86 0 229 105 628 80 38 151 0 462 -17 463 0 241 462 100 97 465 496 0
 623 +17 465 0 237 475 623 98 463 496 0 471 -15 237 1359 0 475 232 0 17 475 0 23
7 103 465 94 471 476 0 474 +17 103 0 237 623 475 93 96 493 0 625 +17 474 0 324 4
71 450 94 92 483 0 0 -17 450 0 324 474 629 90 68 431 0 0 -17 92 0 233 500 96 90
 474 483 0 37 +17 37 0 29 68 35 90 500 469 0 450 -17 629 0 324 450 630 66 79 468
 0 0 -17 630 0 324 629 631 77 519 516 0 0 -17 79 0 257 632 451 77 629 468 0 527
 +15 257 1083 0 451 252 0 17 632 0 257 633 79 76 527 524 0 634 -17 451 0 257 79
 633 66 449 532 0 629 +17 527 0 253 519 634 77 632 524 0 630 +15 253 1087 0 519
 248 0 17 519 0 253 82 527 73 630 516 0 631 +17 634 0 253 527 82 76 508 505 0 0
 -17 82 0 253 634 519 72 75 513 0 508 -17 508 0 245 512 84 72 634 505 0 635 +15
 245 1099 0 636 240 0 17 512 0 245 636 508 36 635 509 0 531 +17 84 0 245 508 65
 76 633 502 0 632 +17 635 0 249 75 531 72 512 509 0 0 -15 249 1091 0 531 244 0 1
7 75 0 249 71 635 73 82 513 0 519 +17 531 0 249 635 71 36 637 528 0 0 +17 71 0 2
49 531 75 69 631 506 0 637 +17 637 0 29 136 42 69 531 528 0 638 -17 136 0 29 132
 637 108 638 427 0 0 +17 42 0 29 637 128 36 636 639 0 512 +17 638 0 324 631 472
 69 136 427 0 0 -17 631 0 324 630 638 73 71 506 0 0 -17 472 0 324 638 640 108 12
1 162 0 136 -17 640 0 324 472 460 119 610 607 0 0 -17 121 0 225 618 110 119 472
 162 0 641 +15 225 1633 0 110 220 0 17 618 0 225 140 121 118 641 615 0 601 +17 1
10 0 225 121 140 108 132 137 0 472 +17 641 0 221 610 601 119 618 615 0 640 -15 2
21 1637 0 610 216 0 17 610 0 221 124 641 115 640 607 0 460 +17 601 0 221 641 124
 118 146 597 0 0 +17 124 0 221 601 610 114 117 604 0 146 +17 146 0 138 34 126 11
4 601 597 0 147 -17 126 0 138 146 107 118 140 594 0 618 -17 147 0 217 117 149 11
4 34 148 0 0 +15 217 1641 0 149 213 0 17 117 0 217 113 147 115 124 604 0 610 -17
 149 0 217 147 113 10 30 459 0 0 +17 113 0 217 149 117 111 460 598 0 30 +17 460
 0 324 640 456 115 113 598 0 0 -17 140 0 225 110 618 101 126 594 0 132 +17 128 0
 29 42 449 122 65 642 0 636 +17 636 0 245 643 512 122 42 639 0 643 -16 639 2777
 644 ?42 642 307 157 642 642 1 81 1 644 2953 152 639 0 0 645 646 647 16 642 931
 645 ?128 40 639 157 639 639 1 16 307 723 381 ?47 639 301 302 0 0 1 31 157 933 0
 642 302 155 0 -0 0 -.002 0 0 1 1 0 0 .01 81 1 381 2494 152 307 0 0 380 385 648
 84 32 648 6d1a84419aae1af29caf709af8507e8281 1 645 2952 152 642 0 0 649 644 650
 16 40 2824 646 ?35 151 642 155 151 151 1 81 1 646 2954 152 40 0 0 644 141 651 8
1 1 141 2955 152 133 0 0 646 150 652 84 32 651 97455fef715f04019efe77e088c4ef598
4 32 652 1744f41aa3437fadd5c465fbbe6aa5fd81 1 649 2951 152 145 0 0 653 645 654 8
4 32 650 2d3382b73a8bdfeb51bdbf35d141023416 145 2890 649 ?144 655 0 656 0 0 1 81
 1 653 2950 152 657 0 0 658 649 659 84 32 654 d1ee27964373ba6b71fd8d345b39703c16
 657 2737 653 ?660 661 662 663 0 0 1 81 1 658 2949 152 664 0 0 23 653 665 84 32
 659 9ad48ef35df318990ebd840c3cb1eb2c16 664 2843 658 ?666 667 655 668 0 0 1 81 1
 23 2948 152 9 0 0 669 658 670 84 32 665 33575dd4603d373518e896dc3d336ce881 1 66
9 2947 152 655 0 0 671 23 672 84 32 670 8896d07fc08c7d5c73b06748efcbd45d16 655 2
894 669 ?673 664 145 674 0 0 1 81 1 671 2946 152 667 0 0 675 669 676 84 32 672 6
5acd4aee0aa482ce9e9ae0e0e74248f16 667 2847 671 ?677 678 664 679 0 0 1 81 1 675 2
945 152 678 0 0 680 671 681 84 32 676 d69185ee5da408d8e814e5bf5f5da83516 678 279
6 675 ?682 662 667 683 0 0 1 81 1 680 2944 152 662 0 0 684 675 685 84 32 681 abb
4304756f1a748e3f96fe58f50b99716 662 2800 680 ?686 657 678 687 0 0 1 81 1 684 294
3 152 661 0 0 688 680 689 84 32 685 240d5e29bed34ec5354182c0627c090b16 661 2729
 684 ?690 691 657 692 0 0 1 81 1 688 2942 152 691 0 0 693 684 694 84 32 689 7cf0
7234db43eb9366de948348a08ea516 691 2735 688 ?695 696 661 697 0 0 1 81 1 693 2576
 152 220 0 698 699 688 700 84 32 694 577ab6d4aea4b8948c62bed63136434681 1 698 30
37 701 220 693 223 702 703 704 81 1 699 2575 152 216 0 703 705 693 706 84 32 700
 8a0910f2896b7ee9bb8a9af2a2972cf281 1 703 3039 701 216 699 219 698 707 708 81 1
 705 2573 152 213 0 707 709 699 710 84 32 706 b064fbc9fcccecc0538060ff855b2c9c81
 1 707 3041 701 213 705 215 703 711 712 81 1 709 2572 152 232 0 713 714 705 715
 84 32 710 b0738db829e1f357e26849ae261f425081 1 713 3031 701 232 709 235 716 717
 718 81 1 714 2570 152 228 0 717 719 709 720 84 32 715 fdf24c261ed4eb48ce6cb2ba7
bc63af981 1 717 3033 701 228 714 231 713 702 721 81 1 719 2569 152 236 0 716 722
 714 723 84 32 720 2f8b8a64f220899208a47b88f06ada2e81 1 716 3029 701 236 719 239
 724 713 725 81 1 722 2568 152 244 0 726 727 719 728 84 32 723 3a8c8e2d3bce24cb9
1eb3950c4bf554e81 1 726 3025 701 244 722 247 729 724 730 81 1 727 2567 152 252 0
 731 732 722 733 84 32 728 e4bc807656db65be828989d1a339206f81 1 731 3021 701 252
 727 255 734 729 735 81 1 732 2566 152 248 0 729 736 727 737 84 32 733 07e675118
61f3726a4db2ce0e0e6511a81 1 729 3023 701 248 732 251 731 726 738 81 1 736 2565 1
52 345 0 739 740 732 741 84 32 737 7f43ff404ad947a04e91006c81b2f7c481 1 739 2997
 701 345 736 348 742 743 744 81 1 740 2564 152 329 0 742 745 736 746 84 32 741 6
0047dd2e1301a636c0b03f2f121953181 1 742 2995 701 329 740 350 747 739 748 81 1 74
5 2563 152 749 0 750 751 740 752 84 32 746 37c26edd191e4fbcfd471d2c8aa3fd3514 74
9 2433 753 ?188 754 755 4 756 -0 0 188 754 22 81 1 750 3069 701 749 745 753 757
 758 759 81 1 751 2562 152 754 0 757 760 745 761 84 32 752 0f32f55d5d6d94a00ab4d
47d051e817f14 754 2423 762 ?749 763 764 4 765 -0 0 749 763 22 81 1 757 3067 701
 754 751 762 766 750 767 81 1 760 2560 152 185 0 768 769 751 770 84 32 761 7b81a
7d57b743865c11cd80692616ab614 185 2352 771 ?772 177 773 4 774 -0 0 772 177 22 81
 1 768 3059 701 185 760 771 775 776 777 81 1 769 2558 152 17 0 181 778 760 779 8
4 32 770 bf04ac16db3ab2d96842c968a40ee6e881 1 181 3055 701 17 769 176 780 775 78
1 81 1 778 2557 152 189 0 782 783 769 784 84 32 779 4a667d900f2762da2bcf6a7b60ea
bb5014 189 2240 785 ?178 204 786 4 787 +0 0 178 204 22 81 1 782 3051 701 189 778
 785 788 780 789 81 1 783 2556 152 204 0 788 790 778 791 84 32 784 bf6983653f70e
e3ce796f721c3ce1fa714 204 2060 792 ?189 209 793 4 202 -0 0 189 209 22 81 1 788 3
049 701 204 783 792 794 782 795 81 1 790 2555 152 209 0 794 796 783 797 84 32 79
1 1bd14b2a5b83c1fd49e912bb52a600b914 209 2045 798 ?204 206 799 4 205 +0 0 204 20
6 22 81 1 794 3047 701 209 790 798 800 788 801 81 1 796 2554 152 206 0 800 802 7
90 803 84 32 797 ddae17b9ec0325c892dbef7f3bb75fba81 1 800 3045 701 206 796 208 7
11 794 804 81 1 802 2553 152 15 0 196 805 796 806 84 32 803 601e08ae370bcf607783
047a8c9d22a681 1 196 2973 701 15 802 193 0 807 808 81 1 805 2552 152 277 0 809 8
10 802 811 84 32 806 bd2b2ae376b10f69fbea4b2f02512cc081 1 809 3007 701 277 805 3
10 812 813 814 81 1 810 2551 152 282 0 812 815 805 816 84 32 811 9ad3ec48d4fba54
02e8bb7331a87385381 1 812 3005 701 282 810 284 817 809 818 81 1 815 2550 152 285
 0 817 819 810 820 84 32 816 4aa0bae06b93dbc2aaf1b12007b9afc881 1 817 3003 701 2
85 815 289 354 812 821 81 1 819 2549 152 266 0 822 823 815 824 84 32 820 7e69de4
9ecbceeb6f877bb0e592089db81 1 822 3013 701 266 819 268 825 826 827 81 1 823 2548
 152 261 0 826 828 819 829 84 32 824 34e04ba4c45df4f99fe8289ed9a37cb981 1 826 30
15 701 261 823 272 822 830 831 81 1 828 2547 152 258 0 830 832 823 833 84 32 829
 38e3401d5c8ba96d364ae0706a80f54581 1 830 3017 701 258 828 260 826 734 834 81 1
 832 2546 152 256 0 734 835 828 836 84 32 833 6bc61c1a9e8ba4e29bcd2ce091d09f8181
 1 734 3019 701 256 832 264 830 731 837 81 1 835 2545 152 269 0 825 838 832 839
 84 32 836 6e5fc5b3d04e5a64e60eeefff1a18ba281 1 825 3011 701 269 835 280 813 822
 840 81 1 838 2544 152 274 0 813 841 835 842 84 32 839 cf3b0c98679490d6f5d46fb4f
e43ece981 1 813 3009 701 274 838 276 809 825 843 81 1 841 2543 152 342 0 743 844
 838 845 84 32 842 3a095cabd793363a466f6ef45f7bf61181 1 743 2999 701 342 841 344
 739 354 846 81 1 844 2542 152 338 0 847 848 841 849 84 32 845 f37948c8855e597ff
635179e688b903881 1 847 2979 701 338 844 340 850 851 852 81 1 848 2541 152 290 0
 354 853 844 854 84 32 849 a6ad52ce8bc977e13b7b81ad7b42c2b481 1 354 3001 701 290
 848 352 743 817 855 81 1 853 2540 152 199 0 850 856 848 857 84 32 854 718bd3b45
b01c925d93833d83dc7c0fc14 199 410 858 ?338 194 395 4 287 -0 0 338 194 22 81 1 85
0 2977 701 199 853 858 807 847 859 81 1 856 2538 152 326 0 747 860 853 861 84 32
 857 01d842a57870403e7e26f372f08c39b681 1 747 2993 701 326 856 328 862 742 863 8
1 1 860 2537 152 330 0 862 864 856 865 84 32 861 c5ed33af1f721906fbd8e84e39773b0
781 1 862 2991 701 330 860 333 866 747 867 81 1 864 2536 152 323 0 866 868 860 8
69 84 32 865 0f85eecc9c95e208573b5c61d914bd9a81 1 866 2989 701 323 864 336 870 8
62 871 81 1 868 2535 152 178 0 780 872 864 873 84 32 869 ce7956a5fad578ce56dd08b
e3789532a81 1 780 3053 701 178 868 182 782 181 874 81 1 872 2534 152 316 0 870 8
75 868 876 84 32 873 9e5a5d25b36fe7022171dab30080513881 1 870 2987 701 316 872 3
22 877 866 878 81 1 875 2533 152 194 0 807 879 872 880 84 32 876 d9561f6c3f521d4
fdb241575d5e20b3a81 1 807 2975 701 194 875 197 196 850 881 81 1 879 2532 152 317
 0 882 883 875 884 84 32 880 e09bae1a0fe6f5263e6530755bbbfa1681 1 882 2983 701 3
17 879 319 851 877 885 81 1 883 2531 152 312 0 877 596 879 886 84 32 884 eef335f
4b689310beaf9c5493f2c0be181 1 877 2985 701 312 883 315 882 870 887 81 1 596 2530
 152 594 0 0 619 883 888 84 32 886 7e0a2f4401f66b1fa3eb42e91bbf9b9481 1 619 2529
 152 459 0 0 614 596 889 84 32 888 ae08a78575509de52c89fa8205d085ec81 1 614 2528
 152 604 0 0 609 619 890 84 32 889 ea7602666276d0f897041c3f376d63e481 1 609 2527
 152 607 0 0 600 614 891 84 32 890 d85c577e513c5c2b4301695dc1b2040a81 1 600 2526
 152 597 0 0 617 609 892 84 32 891 a7a364464bea096fdfab88be42396d6181 1 617 2525
 152 615 0 0 612 600 893 84 32 892 4a3db3affa00290acd701a072749bd1681 1 612 2523
 152 598 0 0 603 617 894 84 32 893 defef170086e72faf989eba8c02b5f6181 1 603 2522
 152 148 0 0 485 612 895 84 32 894 d1431947716c500b67e66e22cebc599481 1 485 2521
 152 137 0 0 606 603 896 84 32 895 75bd02eb332137b4c83225a884b8a1ed81 1 606 2520
 152 162 0 0 622 485 897 84 32 896 f10e7a0841d532f35cdff959517c24bb84 32 897 95f
c36f71d18893942f74a35ee2c085280 1 701 898 899 8015 0 0 0 0 3 5 0 0 0 FFFFTFFFFFF
FFF2 81 1 315 2986 180 312 877 0 319 322 900 83 255 1 887 0 80 1 180 0 901 8001
 0 0 0 0 3 5 0 0 0 FFFFTFTFFFFFFF2 81 1 319 2984 180 317 882 0 902 315 903 81 1
 322 2988 180 316 870 0 315 336 904 83 3 900 .6 .6 .6 81 1 336 2990 180 323 866
 0 322 333 905 83 3 904 .6 .6 .6 81 1 333 2992 180 330 862 0 336 328 906 83 3 90
5 .6 .6 .6 81 1 328 2994 180 326 747 0 333 350 907 83 3 906 .6 .6 .6 81 1 350 29
96 180 329 742 0 328 348 908 83 3 907 .6 .6 .6 81 1 348 2998 180 345 739 0 350 3
44 909 83 3 908 .6 .6 .6 81 1 344 3000 180 342 743 0 348 352 910 83 3 909 .6 .6
 .6 83 3 910 .6 .6 .6 81 1 902 2982 180 134 851 0 340 319 911 83 3 903 .6 .6 .6
 14 134 124 902 ?317 338 29 4 201 +194 194 317 338 22 81 1 851 2981 701 134 912
 902 847 882 913 81 1 340 2980 180 338 847 0 858 902 914 83 3 911 .6 .6 .6 81 1
 858 2978 180 199 850 0 197 340 915 83 3 914 .6 .6 .6 81 1 197 2976 180 194 807
 0 193 858 916 83 3 915 .6 .6 .6 83 3 916 .6 .6 .6 81 1 912 2958 152 134 0 851 1
53 917 918 83 1 913 0 81 1 153 2957 152 151 0 0 150 912 919 81 1 917 2959 152 17
7 0 775 912 920 921 84 32 918 e7d2fd1048e89b90a045a3a82114819c81 1 775 3057 701
 177 917 183 181 768 922 81 1 920 2960 152 763 0 766 917 923 924 84 32 921 8612a
628d335b660ae9643438f38fd7714 763 2751 925 ?754 926 927 4 928 -0 0 754 926 22 81
 1 766 3065 701 763 920 925 929 757 930 81 1 923 2961 152 772 0 776 920 931 932
 84 32 924 a170b2e28746b548ac7507eeab8160b114 772 2741 933 ?926 185 934 4 935 +0
 0 926 185 22 81 1 776 3061 701 772 923 933 768 929 936 81 1 931 2962 152 926 0
 929 923 937 938 84 32 932 237e0ffce37bd77cd09003862985152614 926 2746 939 ?763
 772 940 4 941 -0 0 763 772 22 81 1 929 3063 701 926 931 939 776 766 942 81 1 93
7 2963 152 240 0 724 931 943 944 84 32 938 d31ce6c87c03b613363961541f24b3bd81 1
 724 3027 701 240 937 243 726 716 945 81 1 943 2964 152 946 0 947 937 948 949 84
 32 944 0d20d147b6e787950c29d8d2131370a214 946 2803 950 ?951 188 952 4 953 -0 0
 951 188 22 81 1 947 3073 701 946 943 950 758 954 955 81 1 948 2965 152 951 0 95
4 943 956 957 84 32 949 92c8be4a6f7e2f7c22027bb0e2220cec14 951 2808 958 ?959 946
 960 4 961 +0 0 959 946 22 81 1 954 3075 701 951 948 958 947 962 963 81 1 956 29
66 152 224 0 702 948 964 965 84 32 957 87ce4bf2d92b8d78fa6b074fef7bee8a81 1 702
 3035 701 224 956 227 717 698 966 81 1 964 2967 152 959 0 962 956 967 968 84 32
 965 c64d2c14c0e5d3bed29c2ead2ea8f43214 959 2850 969 ?970 951 971 4 972 -0 0 970
 951 22 81 1 962 3077 701 959 964 969 954 973 974 81 1 967 2968 152 970 0 973 96
4 975 976 84 32 968 3517c612e7ea6a62405e202bca80787f14 970 2855 977 ?978 959 979
 4 980 +0 0 978 959 22 81 1 973 3079 701 970 967 977 962 981 982 81 1 975 2969 1
52 143 0 711 967 983 984 84 32 976 3ec4522151b53d6be537714d6ea3730c81 1 711 3043
 701 143 975 212 707 800 985 81 1 983 2970 152 978 0 981 975 986 987 84 32 984 3
33db0b629d3d48bafd65ba1cc70f8a214 978 2897 988 ?989 970 990 4 991 -0 0 989 970 2
2 81 1 981 3081 701 978 983 988 973 992 993 81 1 986 2971 152 989 0 992 983 994
 995 84 32 987 f0bc7e5efdc0f8fcca96ca6f838979a214 989 2902 996 ?0 978 997 4 998
 +0 0 0 978 22 81 1 992 3083 701 989 986 996 981 0 999 81 1 994 2972 152 188 0 7
58 986 0 1000 84 32 995 0cfef6c8cad82b59f03a5d42bc48fd6a14 188 2705 1001 ?946 74
9 1002 4 187 -177 177 946 749 22 81 1 758 3071 701 188 994 1001 750 947 1003 84
 32 1000 2b90a456011bb23a61b01e968d184e3f81 1 1001 3072 180 188 758 0 753 950 10
04 83 1 1003 0 81 1 753 3070 180 749 750 0 762 1001 1005 81 1 950 3074 180 946 9
47 0 1001 958 1006 83 3 1004 .6 .6 .6 81 1 958 3076 180 951 954 0 950 969 1007 8
3 3 1006 .6 .6 .6 81 1 969 3078 180 959 962 0 958 977 1008 83 3 1007 .6 .6 .6 81
 1 977 3080 180 970 973 0 969 988 1009 83 3 1008 .6 .6 .6 81 1 988 3082 180 978
 981 0 977 996 1010 83 3 1009 .6 .6 .6 81 1 996 3084 180 989 992 0 988 0 1011 83
 3 1010 .6 .6 .6 83 3 1011 .6 .6 .6 81 1 762 3068 180 754 757 0 925 753 1012 83
 3 1005 .6 .6 .6 81 1 925 3066 180 763 766 0 939 762 1013 83 3 1012 .6 .6 .6 81
 1 939 3064 180 926 929 0 933 925 1014 83 3 1013 .6 .6 .6 81 1 933 3062 180 772
 776 0 771 939 1015 83 3 1014 .6 .6 .6 81 1 771 3060 180 185 768 0 183 933 1016
 83 3 1015 .6 .6 .6 81 1 183 3058 180 177 775 0 176 771 1017 83 3 1016 .6 .6 .6
 83 3 1017 .6 .6 .6 15 1002 2395 0 1018 188 1019 50 187 2362 0 177 756 774 0 +0
 0 -.01785 0 0 1 1 0 0 51 756 2441 0 749 765 187 0 +0 0 -.0184 0 0 1 .0037 1 0 0
 51 774 2360 0 185 187 787 0 +0 0 -.0184 0 0 1 .00689 1 0 0 51 787 2265 0 189 77
4 205 0 +0 0 -.017 0 0 -1 .00825 -1 0 0 51 205 2070 0 209 787 202 0 +0 0 -.01325
 0 0 -1 .00825 -1 0 0 50 765 2443 0 754 935 756 0 +0 0 -.01485 0 0 1 1 0 0 51 93
5 2761 0 772 941 765 0 +0 0 -.01795 0 0 1 .0066 1 0 0 51 941 2762 0 926 928 935
 0 +0 0 -.01795 0 0 1 .00385 1 0 0 50 928 2764 0 763 953 941 0 +0 0 -.01795 0 0
 1 1 0 0 52 953 2816 0 946 961 928 0 --.00753442101292462 .00435 -.002 0 0 -1 .0
013 .0523359562429438 .998629534754574 1 0 0 50 961 2818 0 951 972 953 0 +-.0075
3442101292462 .00435 -.0011 0 0 1 1 0 0 52 972 2863 0 959 980 961 0 --2602085213
96521e-32 -.0087 -.002 0 0 -1 .0013 .0523359562429438 .998629534754574 -.5 .8660
25403784439 0 50 980 2865 0 970 991 972 0 +-260208521396521e-32 -.0087 -.0011 0
 0 1 1 0 0 52 991 2910 0 978 998 980 0 -.00753442101292462 .00435 -.002 0 0 -1 .
0013 .0523359562429438 .998629534754574 -.5 -.866025403784438 0 50 998 2912 0 98
9 0 991 0 +.00753442101292462 .00435 -.0011 0 0 1 1 0 0 17 1018 0 1002 1018 1018
 0 1020 19 0 0 +15 1019 2704 0 1021 188 0 17 1021 0 1019 1021 1021 0 24 9 0 0 -1
7 24 0 1022 24 24 0 1021 9 0 0 +15 1022 2750 0 24 926 0 17 1020 0 1023 1020 1020
 0 1018 19 0 0 -16 19 2410 1024 ?1018 591 696 6 0 0 1 81 1 1024 2482 152 19 0 0
 1025 416 1026 16 591 2338 1027 ?1028 588 19 590 0 0 1 16 696 2413 1025 ?1029 19
 691 1030 0 0 1 81 1 1025 2481 152 696 0 0 1027 1024 1031 17 1029 0 755 1029 102
9 0 1032 696 0 0 +31 1030 2445 0 696 26 592 0 +0 0 -.01485 0 0 1 1 0 0 .0037 31
 26 2765 0 9 663 1030 0 +0 0 -.01785 0 0 1 -1 1224646799147352e-31 0 .00385 31 5
92 2364 0 588 1030 590 0 +0 0 -.01785 0 0 1 1 0 0 .00689 16 588 2336 1033 ?1034
 583 591 592 0 0 1 81 1 1033 2479 152 588 0 0 170 1027 1035 17 1034 0 773 1034 1
034 0 1036 588 0 0 +15 773 2356 0 1034 185 1037 17 1036 0 1038 1036 1036 0 1034
 588 0 0 -15 1038 2346 0 1036 177 0 15 1037 2357 0 1039 185 0 17 1039 0 1037 103
9 1039 0 1028 591 0 0 -17 1028 0 190 1028 1028 0 1039 591 0 0 +15 190 2324 0 102
8 178 585 15 585 2201 0 582 178 0 81 1 170 2478 152 583 0 0 167 1033 1040 81 1 1
027 2480 152 591 0 0 1033 1025 1041 84 32 1035 a3b7ed696ed1f02397ff47f265c129738
4 32 1041 72f782261c09e66ec44fa7cb31d2c5fe84 32 1040 664ea1c83e812c5ebee8743a423
acfd131 663 2766 0 657 697 26 0 +0 0 -.01785 0 0 1 -1 1224646799147352e-31 0 .00
66 31 697 2767 0 691 692 663 0 +0 0 -.01795 0 0 1 -1 1224646799147352e-31 0 .003
85 31 692 2768 0 661 687 697 0 +0 0 -.01795 0 0 1 -1 1224646799147352e-31 0 .006
6 31 687 2819 0 662 683 692 0 +-.00753442101292462 .00435 -.0011 0 0 1 1 0 0 .00
1252832998645262 31 683 2820 0 678 679 687 0 +-.00753442101292462 .00435 -.002 0
 0 1 1 0 0 .0013 31 679 2866 0 667 668 683 0 +-260208521396521e-32 -.0087 -.0011
 0 0 1 1 0 0 .001252832998645262 31 668 2867 0 664 674 679 0 +-260208521396521e-
32 -.0087 -.002 0 0 1 -.5 .866025403784439 0 .0013 31 674 2913 0 655 656 668 0 +
.00753442101292462 .00435 -.0011 0 0 1 1 0 0 .001252832998645262 31 656 2914 0 1
45 0 674 0 +.00753442101292462 .00435 -.002 0 0 1 -.5 -.866025403784438 0 .0013
 15 755 2421 0 1029 749 1023 17 1032 0 764 1032 1032 0 1029 696 0 0 -15 764 2427
 0 1032 754 0 15 1023 2422 0 1020 749 0 84 32 1031 44b3b8ae7705af02c590834828da6
a6281 1 416 2483 152 410 0 0 1024 413 1042 84 32 1026 0becd128503e49b3bada491a47
dcffe981 1 413 2484 152 411 0 0 416 447 1043 84 32 1042 59dbe7dc2c7bbeb8d978ac2d
62fd521b81 1 447 2485 152 379 0 0 413 446 1044 84 32 1043 47e5d526d97127ce5c58cd
4af7f7580c16 379 299 447 ?1045 423 411 378 0 0 1 84 32 1044 81cf16efdcccfba09dc2
b86bd493d83b17 1045 0 1046 1045 1045 0 1047 379 0 0 +15 1046 286 0 1045 338 0 17
 1047 0 349 1047 1047 0 1045 379 0 0 -15 349 324 0 1047 345 1048 15 1048 325 0 1
049 345 0 17 1049 0 1048 1049 1049 0 417 410 0 0 -17 417 0 1050 417 417 0 1049 4
10 0 0 +15 1050 320 0 417 329 0 83 1 999 0 15 997 2905 0 673 989 0 17 673 0 997
 673 673 0 1051 655 0 0 +17 1051 0 990 1051 1051 0 673 655 0 0 -15 990 2900 0 10
51 978 1052 15 1052 2901 0 144 978 0 17 144 0 1052 144 144 131 139 145 0 0 +83 1
 993 0 81 1 212 3044 180 143 711 0 215 208 1053 83 1 985 0 81 1 215 3042 180 213
 707 0 219 212 1054 81 1 208 3046 180 206 800 0 212 798 1055 83 3 1053 .6 .6 .6
 81 1 798 3048 180 209 794 0 208 792 1056 83 3 1055 .6 .6 .6 81 1 792 3050 180 2
04 788 0 798 785 1057 83 3 1056 .6 .6 .6 81 1 785 3052 180 189 782 0 792 182 105
8 83 3 1057 .6 .6 .6 81 1 182 3054 180 178 780 0 785 176 1059 83 3 1058 .6 .6 .6
 83 3 1059 .6 .6 .6 81 1 219 3040 180 216 703 0 223 215 1060 83 3 1054 .6 .6 .6
 81 1 223 3038 180 220 698 0 227 219 1061 83 3 1060 .6 .6 .6 81 1 227 3036 180 2
24 702 0 231 223 1062 83 3 1061 .6 .6 .6 81 1 231 3034 180 228 717 0 235 227 106
3 83 3 1062 .6 .6 .6 81 1 235 3032 180 232 713 0 239 231 1064 83 3 1063 .6 .6 .6
 81 1 239 3030 180 236 716 0 243 235 1065 83 3 1064 .6 .6 .6 81 1 243 3028 180 2
40 724 0 247 239 1066 83 3 1065 .6 .6 .6 81 1 247 3026 180 244 726 0 251 243 106
7 83 3 1066 .6 .6 .6 81 1 251 3024 180 248 729 0 255 247 1068 83 3 1067 .6 .6 .6
 81 1 255 3022 180 252 731 0 264 251 1069 83 3 1068 .6 .6 .6 81 1 264 3020 180 2
56 734 0 260 255 1070 83 3 1069 .6 .6 .6 81 1 260 3018 180 258 830 0 272 264 107
1 83 3 1070 .6 .6 .6 81 1 272 3016 180 261 826 0 268 260 1072 83 3 1071 .6 .6 .6
 81 1 268 3014 180 266 822 0 280 272 1073 83 3 1072 .6 .6 .6 81 1 280 3012 180 2
69 825 0 276 268 1074 83 3 1073 .6 .6 .6 81 1 276 3010 180 274 813 0 310 280 107
5 83 3 1074 .6 .6 .6 81 1 310 3008 180 277 809 0 284 276 1076 83 3 1075 .6 .6 .6
 81 1 284 3006 180 282 812 0 289 310 1077 83 3 1076 .6 .6 .6 81 1 289 3004 180 2
85 817 0 352 284 1078 83 3 1077 .6 .6 .6 83 3 1078 .6 .6 .6 83 1 982 0 15 979 28
58 0 677 970 0 17 677 0 979 677 677 0 1079 667 0 0 +17 1079 0 971 1079 1079 0 67
7 667 0 0 -15 971 2853 0 1079 959 1080 15 1080 2854 0 666 959 0 17 666 0 1080 66
6 666 129 628 664 0 0 +17 628 0 229 86 39 129 666 664 0 666 -83 1 974 0 83 1 966
 0 83 1 963 0 15 960 2811 0 686 951 0 17 686 0 960 686 686 0 1081 662 0 0 +17 10
81 0 952 1081 1081 0 686 662 0 0 -15 952 2806 0 1081 946 1082 15 1082 2807 0 682
 946 0 17 682 0 1082 682 682 122 643 678 0 0 +17 643 0 245 65 636 122 682 678 0
 682 -17 65 0 245 84 643 63 128 642 0 633 -17 633 0 257 451 632 63 84 502 0 449
 -17 449 0 29 128 68 63 451 532 0 0 -83 1 955 0 83 1 945 0 83 1 942 0 15 940 274
9 0 1083 926 1022 17 1083 0 940 1083 1083 0 695 691 0 0 -17 695 0 1084 695 695 0
 1083 691 0 0 +15 1084 2755 0 695 763 0 83 1 936 0 15 934 2744 0 690 772 1085 17
 690 0 934 690 690 0 1086 661 0 0 +15 1085 2745 0 1087 772 0 17 1087 0 1085 1087
 1087 0 660 657 0 0 -17 660 0 186 660 660 0 1087 657 0 0 +15 186 2711 0 660 177
 1038 17 1086 0 927 1086 1086 0 690 661 0 0 -15 927 2754 0 1086 763 1084 83 1 93
0 0 83 1 922 0 84 32 919 c91efe496b6357307c058e1a4c0c446379 255 15 901 SDL/TYSA_
COLOUR79 21 899 SDL/TYSA_TRANSLUCENCY83 1 885 0 83 1 881 0 83 1 878 0 83 1 874 0
 83 1 871 0 83 1 867 0 83 1 863 0 83 1 859 0 83 1 855 0 83 1 852 0 83 1 846 0 83
 1 843 0 83 1 840 0 83 1 837 0 83 1 834 0 83 1 831 0 83 1 827 0 83 1 821 0 83 1
 818 0 83 1 814 0 83 1 808 0 83 1 804 0 83 1 801 0 15 799 2048 0 1088 209 1089 1
7 1088 0 799 1088 1088 0 573 166 0 0 -15 1089 2049 0 577 209 0 17 577 0 1089 577
 577 0 1090 574 0 0 +17 1090 0 1091 1090 1090 0 577 574 0 0 -15 1091 2038 0 1090
 206 0 17 573 0 1092 573 573 0 1088 166 0 0 +15 1092 2064 0 573 204 0 83 1 795 0
 15 793 2063 0 165 204 1092 17 165 0 793 165 165 0 1093 163 0 0 +17 1093 0 174 1
093 1093 0 165 163 0 0 -15 174 2008 0 1093 15 0 83 1 789 0 15 786 2243 0 586 189
 1094 17 586 0 786 586 586 0 582 578 0 0 -15 1094 2244 0 587 189 0 17 587 0 1094
 587 587 0 192 583 0 0 +17 192 0 179 192 192 0 587 583 0 0 -83 1 781 0 83 1 777
 0 83 1 767 0 83 1 759 0 83 1 748 0 83 1 744 0 83 1 738 0 83 1 735 0 83 1 730 0
 83 1 725 0 83 1 721 0 83 1 718 0 83 1 712 0 83 1 708 0 83 1 704 0 84 32 647 322
22bd4cf66170f7819282485f3a72b17 38 0 29 35 455 129 86 151 0 39 +81 1 492 2514 15
2 483 0 0 480 467 1095 84 32 627 b5e4557a6ff7e1485ef9bb479de1250a81 1 467 2515 1
52 458 0 0 492 499 1096 84 32 1095 d0c348612c90e16a5e9fa798b65b273981 1 499 2516
 152 469 0 0 467 498 1097 84 32 1096 2e649e6b0e22b749293f8b0f75126eec81 1 498 25
17 152 496 0 0 499 622 1098 84 32 1097 79a4196745eca55b01d9c469c77e780784 32 109
8 1197ca01e3f8db74cdc7a1070d54a35e84 32 624 1247a4363a924cc9d7584af81636ba0081 1
 479 2511 152 466 0 0 495 477 1099 81 1 495 2510 152 493 0 0 482 479 1100 84 32
 1099 8d5ef18a26a512ddd84ca1518249d3f181 1 482 2509 152 476 0 0 526 495 1101 84
 32 1100 ac162d4f9b6f7160980548bb18ef8f4681 1 526 2508 152 524 0 0 523 482 1102
 84 32 1101 a2591c3978dec6c8e76a5ef14edd781d81 1 523 2507 152 513 0 0 521 526 11
03 84 32 1102 8d036c1a86eba8ea1cdfe68b9195867981 1 521 2506 152 506 0 0 511 523
 1104 84 32 1103 f2f1aaac069d18dd86f7d20ff84ff6e981 1 511 2505 152 509 0 0 515 5
21 1105 84 32 1104 d72009be985b748ff90d97706649dc0c81 1 515 2504 152 468 0 0 504
 511 1106 84 32 1105 50e779ddfb9bd42cfdd1d3ad866e61ff81 1 504 2503 152 502 0 0 5
30 515 1107 84 32 1106 79689545bbb47a2e03c061509524ea9881 1 530 2502 152 528 0 0
 534 504 1108 84 32 1107 1520192ec4248e1f181b3708d518ac9081 1 534 2501 152 532 0
 0 518 530 1109 84 32 1108 765301dbd50da8a8e91c836f18eef97a81 1 518 2500 152 516
 0 0 453 534 1110 84 32 1109 631b39b70b073ffef46ae267fde1d7e681 1 453 2499 152 5
05 0 0 452 518 1111 84 32 1110 051275e24faaf881d139643cdfb0376184 32 1111 354678
c0bda5bf5aed64c35b9f03874884 32 564 0af3777e518e195fa6ba012dc8e4a8b479 15 563 UG
S/ObjectState17 552 0 281 552 552 0 1112 404 0 0 +15 281 799 0 552 269 559 17 11
12 0 278 1112 1112 0 552 404 0 0 -15 278 791 0 1112 274 0 17 551 0 1113 551 551
 0 1114 540 0 0 +15 1113 818 0 551 316 556 17 1114 0 1115 1114 1114 0 551 540 0
 0 -15 1115 847 0 1114 261 0 17 547 0 273 547 547 0 1116 544 0 0 +15 273 846 0 5
47 261 1115 17 1116 0 270 1116 1116 0 547 544 0 0 -15 270 838 0 1116 266 0 17 54
3 0 473 543 543 0 1117 535 0 0 +15 473 861 0 543 316 1113 17 1117 0 1118 1117 11
17 0 543 535 0 0 -15 1118 890 0 1117 256 0 17 539 0 265 539 539 0 1119 536 0 0 +
15 265 889 0 539 256 1118 17 1119 0 262 1119 1119 0 539 536 0 0 -15 262 881 0 11
19 258 0 84 32 481 38f2e029def1776aab306a7a458e80f181 1 386 2497 152 427 0 0 385
 452 1120 84 32 454 64ab6844a7953b7b9fa6c500f45ee34c84 32 1120 d6ba67894978ad52f
3a624493f9f062a81 1 400 2487 152 360 0 0 446 409 1121 84 32 448 eeb4be8264bcda0a
33510bbe0c4ae5e381 1 409 2488 152 394 0 0 400 402 1122 84 32 1121 56fa14dfb81142
1c8edf5d5df44b4edc81 1 402 2489 152 397 0 0 409 372 1123 84 32 1122 7a1f7b7d16b7
5c4b6dcaeabf4cbbf8c281 1 372 2490 152 366 0 0 402 396 1124 84 32 1123 406c566558
38a34dc85d44eef7da340b84 32 1124 6841ab8087aba6ec8068dae065829ec215 135 121 0 44
3 134 0 17 445 0 334 445 445 0 443 441 0 0 -15 334 160 0 445 330 1125 15 1125 16
1 0 1126 330 0 17 1126 0 1125 1126 1126 0 426 423 0 0 -17 426 0 1127 426 426 0 1
126 423 0 0 +15 1127 156 0 426 323 0 81 1 439 2462 152 422 0 0 425 442 1128 81 1
 369 2464 152 367 0 0 442 365 1129 84 32 444 6324edd972b6d90157228e668935074f84
 32 1129 2c982ef04b231bdaefa1d41bacba22cb81 1 425 2461 152 423 0 0 420 439 1130
 84 32 1128 0715a55b634bb9a38aa15cbda2ef770481 1 420 2460 152 418 0 0 433 425 11
31 84 32 1130 7f7b50dfa18b02d2951af2414f26bd5c81 1 433 2459 152 429 0 0 436 420
 1132 84 32 1131 c10c9e61f6c489a4c8b4342281da6d9e81 1 436 2458 152 376 0 0 0 433
 1133 84 32 1132 e2bdb17ef09e355e245a9c0d1f3ae95284 32 1133 8a1774735496d104be54
9bc6acf40d4a17 440 0 331 440 440 0 1134 422 0 0 +15 331 170 0 440 326 1135 17 11
34 0 200 1134 1134 0 440 422 0 0 -15 200 114 0 1134 194 1136 15 1136 1827 0 161
 194 0 17 161 0 1136 161 161 0 1137 158 0 0 +17 1137 0 210 1137 1137 0 161 158 0
 0 -15 210 1868 0 1137 206 1091 15 1135 171 0 421 326 0 17 421 0 1135 421 421 0
 1138 418 0 0 +17 1138 0 337 1138 1138 0 421 418 0 0 -15 337 155 0 1138 323 1127
 17 437 0 318 437 437 0 1139 376 0 0 +15 318 13 0 437 312 561 17 1139 0 1140 113
9 1139 0 437 376 0 0 -15 1140 14 0 1139 317 0 17 414 0 1141 414 414 0 1142 411 0
 0 +15 1141 280 0 414 342 0 17 1142 0 351 1142 1142 0 414 411 0 0 -15 351 319 0
 1142 329 1050 17 403 0 286 62 62 57 390 397 0 0 +15 286 613 0 403 282 0 17 62 0
 286 403 403 60 359 366 0 390 +17 390 0 291 384 59 60 403 397 0 383 -17 383 0 35
3 359 358 60 384 394 0 0 -17 359 0 353 356 383 57 62 366 0 403 -81 1 306 2492 15
2 301 0 0 396 380 1143 84 32 399 a1e65b8a4818949f18dca48b2b8899cc84 32 1143 82ac
013368407c99e590ad299fae5c7384 32 387 e4d7219424d62bd04c542816898589b884 32 382
 248a3c77e8bafea9cc9c530a63dc846717 375 0 341 375 375 0 1144 367 0 0 +15 341 244
 0 375 338 1046 17 1144 0 320 1144 1144 0 375 367 0 0 -15 320 210 0 1144 317 114
0 84 32 371 85d0026c7b6c516d7fd806173c0405c215 346 385 0 363 342 1141 83 3 355 .
6 .6 .6 40 2 298 0 1 2 164124088598858e-19 .079405882732856 ??-.0009949874371066
24 -.0015 .0143 -.0013228756555323 -.0015 .0141 41 1 299 L-.000994987437106624 -
.0015 .0143 41 1 300 L-.0013228756555323 -.0015 .0141 83 3 198 .6 .6 .6 83 3 184
 .6 .6 .6 84 32 171 87431aba34452f6bbf13de2bfed53ab584 32 154 dc37a37113bfc5b0cd
24be80cb6edb5019 16 5 0 1 0 8 4 S0 74 4 CI16 index_map_offset0 0 1 dCCZ20 14 5 0
 0 994 12 992 996 2 0 0 0 0 0 0 0 0 0 0 0 0 0 0 0 81 2 12 2941 1145 1 0 2 0 0 11
46 1147 80 2 1145 1148 1149 8004 0 0 0 0 3 5 0 0 0 FFTFFFFFFFFFFT2 3 83 1 1146 .
001 84 8 1147 Kg/Cu M 79 16 1149 SDL/TYSA_DENSITY80 1 11 1150 1151 9000 0 0 0 0
 3 5 0 0 0 FFTFFFFFFFFFFF1 82 255 1 13 87 79 24 1151 UG2/BODY_COLOR_ATTRIBUTE1 0
 
