**ABCDEFGHIJKLMNOPQRSTUVWXYZabcdefghijklmnopqrstuvwxyz**************************
**PARASOLID !"#$%&'()*+,-./:;<=>?@[\]^_`{|}~0123456789**************************
**PART1;
MC=x64/Windows NT;
MC_MODEL=genuineintel family 6 model 7 stepping 6, intel(r) core(tm)2 duo cpu     t8100  @ 2.10ghz;
MC_ID=darkflame;
OS=windows nt (x64);
OS_RELEASE=6.1 (workstation) (build 7601: service pack 1) ;
FRU=mdc_ugii_v7.0_djl_can_vrh;
APPL=unigraphics;
SITE=unknown;
USER=Hammerhead;
FORMAT=text;
GUISE=transmit;
KEY=2232USR;
FILE=E:\WORK\MISC\DI\MOTORS\2011-11-25\2232USR.x_t;
DATE=21-dec-2011;
**PART2;
SCH=SCH_2201175_20000;
USFLD_SIZE=0;
**PART3;
**END_OF_HEADER*****************************************************************
T51 : TRANSMIT FILE created by modeller version 220117523 SCH_2201175_20000_1300
6186 0 12 27 CCCCCCCCCCCCCCCCCCCCCCCA16 index_map_offset0 0 1 dA9 index_map82 0
 A17 node_id_index_map82 0 A20 schema_embedding_map82 0 Z1 1964 2 3 0 0 0 0 1e3
 1e-8 0 0 0 1 0 1 1 4 5 6 7 8 9 10 0 0 0 0 81 255 2 2 1856 11 1 0 0 0 0 12 13 70
 11 CI9 list_type0 0 1 uI10 notransmit0 0 1 lCCCDCCDI12 finger_index0 0 1 dI12 f
inger_block1012 0 CZ3 0 4 T1 0 0 3 20 1 14 14 13 255 4 3 0 1 0 15 0 0 16 0 50 25
5 5 209 0 17 18 0 0 +-274341952663953e-31 .01 .03145 1346145417358002e-30 0 1 1
 0 -1346145417358002e-30 31 255 6 225 0 9 19 0 0 +423362733759092e-31 0 .03145 1
346145417358002e-30 0 1 1 0 -1346145417358002e-30 .011 29 255 7 1487 0 10 20 0 .
0053 4e-4 -.00205 19 255 8 100 0 1 16 0 21 V16 255 9 184 0 ?22 0 23 6 0 0 1 18 2
55 10 1485 0 24 0 25 7 ?1 17 255 24 0 26 27 28 10 29 30 0 31 +18 25 1453 0 32 10
 33 20 ?1 17 32 0 34 35 36 25 37 38 0 39 -18 33 1173 0 40 25 41 42 ?1 29 20 1455
 0 25 42 7 .0051 -.00039999999999997 -.0033 29 42 1175 0 33 43 20 .0053 -.001 -5
54556875587487e-32 29 43 885 0 41 44 42 -.0053 4e-4 -.0033 18 41 883 0 45 33 46
 43 ?1 29 44 862 0 46 47 43 -.0051 4e-4 -.0033 18 46 860 0 48 41 49 44 ?1 29 47
 624 0 49 50 44 -.0053 -.001 872357266811996e-32 18 49 622 0 51 46 52 47 ?1 29 5
0 621 0 52 53 47 -.0051 -.001 850152806319493e-32 18 52 619 0 54 49 55 50 ?1 29
 53 615 0 55 56 50 -.0053 .001 872357266811996e-32 18 55 613 0 57 52 58 53 ?1 29
 56 391 0 58 59 53 -.00505 .00547722557505166 759808882477935e-34 18 58 389 0 60
 55 61 56 ?1 29 59 506 0 62 63 56 .00505 .00547722557505167 -513269982072018e-32
 18 62 456 0 64 65 66 59 ?1 29 63 507 0 66 67 59 .00505 -.00547722557505166 1665
33453693771e-32 18 66 454 0 68 62 69 63 ?1 29 67 508 0 69 70 63 -.00505 -.005477
22557505169 84633688945956e-31 18 69 452 0 71 66 72 67 ?1 29 70 510 0 61 73 67 .
00505 .00547722557505167 -.001 18 61 457 0 74 58 75 70 ?1 29 73 511 0 75 76 70 .
00505 -.00547722557505166 -.001 18 75 455 0 77 61 78 73 ?1 29 76 512 0 78 79 73
 -.00505 -.00547722557505169 -.001 18 78 453 0 80 75 65 76 ?1 29 79 513 0 65 81
 76 -.00505 .00547722557505166 -.001 18 65 451 0 82 78 62 79 ?1 29 81 731 0 83 8
4 79 -.0051 .001 850152806319493e-32 18 83 675 0 85 86 87 81 ?1 29 84 734 0 72 8
8 81 -.0051 -.001 -.0042 18 72 680 0 89 69 90 84 ?1 29 88 735 0 90 91 84 -.0051
 .001 -.0042 18 90 679 0 92 72 93 88 ?1 29 91 736 0 93 94 88 -.0053 .001 -.0042
 18 93 676 0 95 90 86 91 ?1 29 94 737 0 86 96 91 -.0053 -.001 -.0042 18 86 681 0
 97 93 83 94 ?1 29 96 1018 0 87 98 94 -.0053 -4e-4 -.0033 18 87 966 0 99 83 100
 96 ?1 29 98 1019 0 100 101 96 -.0053 -4e-4 -.00205 18 100 964 0 102 87 103 98 ?
1 29 101 1020 0 103 104 98 -.0053 4e-4 -.00205 18 103 960 0 105 100 106 101 ?1 2
9 104 1022 0 106 107 101 -.0051 -4e-4 -.00205 18 106 961 0 108 103 109 104 ?1 29
 107 1023 0 109 110 104 -.0051 4e-4 -.00205 18 109 963 0 111 106 112 107 ?1 29 1
10 1024 0 112 113 107 -.0051 -4e-4 -.0033 18 112 965 0 114 109 115 110 ?1 29 113
 1287 0 116 117 110 .0051 -.001 -522915519385669e-32 18 116 1234 0 118 119 120 1
13 ?1 29 117 1288 0 120 121 113 .0051 .001 -522915519385669e-32 18 120 1233 0 12
2 116 123 117 ?1 29 121 1289 0 123 124 117 .0053 .001 -554556875587486e-32 18 12
3 1232 0 125 120 126 121 ?1 29 124 1291 0 115 127 121 .0051 -.001 -.0042 18 115
 1236 0 128 112 129 124 ?1 29 127 1292 0 129 130 124 .0051 .001 -.0042 18 129 12
37 0 131 115 132 127 ?1 29 130 1293 0 132 133 127 .0053 .001 -.0042 18 132 1238
 0 134 129 119 130 ?1 29 133 1294 0 119 135 130 .0053 -.001 -.0042 18 119 1235 0
 136 132 116 133 ?1 29 135 1614 0 126 137 133 .0053 -4e-4 -.0033 18 126 1560 0 1
38 123 139 135 ?1 29 137 1615 0 139 140 135 .0053 -4e-4 -.00205 18 139 1558 0 27
 126 141 137 ?1 29 140 1617 0 141 142 137 .0053 4e-4 -.0033 18 141 1562 0 143 13
9 144 140 ?1 29 142 1618 0 144 145 140 .0051 -4e-4 -.00205 18 144 1559 0 146 141
 147 142 ?1 29 145 1619 0 147 148 142 .0051 4e-4 -.00205 18 147 1556 0 29 144 14
9 145 ?1 29 148 1621 0 149 150 145 .0051 4e-4 -.0033 18 149 1557 0 36 147 151 14
8 ?1 29 150 1685 0 151 152 148 -.006 0 .02721931150477795 18 151 1666 0 153 149
 154 150 ?1 29 152 1722 0 154 155 150 -.003 -.0051961524227066 .0272193115047779
5 18 154 1703 0 156 151 157 152 ?1 29 155 1755 0 157 158 152 .003 -.005196152422
7066 .02721931150477795 18 157 1736 0 159 154 160 155 ?1 29 158 1788 0 160 161 1
55 .006 1041244410234604e-33 .02721931150477795 18 160 1769 0 162 157 163 158 ?1
 29 161 1821 0 163 164 158 .003 .0051961524227066 .02721931150477795 18 163 1802
 0 165 160 166 161 ?1 29 164 1854 0 166 0 161 -.003 .00519615242270661 .02721931
150477795 18 166 1835 0 167 163 0 164 ?1 17 167 0 168 167 167 166 0 0 0 0 ?15 25
5 168 1839 0 167 169 0 14 255 169 1836 170 ?171 172 173 4 174 -0 0 171 172 21 81
 1 170 1962 175 169 176 0 177 178 179 14 171 1843 178 ?0 169 180 4 181 -0 0 0 16
9 21 14 172 1810 177 ?169 182 183 4 184 -0 0 169 182 21 15 173 1838 0 185 169 16
8 52 255 174 1851 0 169 0 181 0 +-.003 .00519615242270661 .0277 619418615866958e
-30 -1134818923691876e-30 1 8e-4 .857167300702112 .515038074910054 .5 -.86602540
3784439 -129249132454596e-29 13 21 99 0 0 0 0 0 0 8 15 14 15 152 186 ?187 0 188
 4 189 +0 0 187 0 21 81 1 186 1862 175 15 190 0 0 191 192 14 187 683 191 ?193 15
 194 4 195 -0 0 193 15 21 15 188 393 0 196 15 197 50 189 201 0 15 198 199 0 +-15
11291092270995e-32 .011 -68142642524852e-31 -1346145417358002e-30 0 -1 -1 0 1346
145417358002e-30 50 198 200 0 200 201 189 0 +-192417353980059e-31 62172489379008
8e-32 .0403 1346145417358002e-30 0 1 1 0 -1346145417358002e-30 51 255 199 202 0
 202 189 203 0 +0 0 0 1346145417358002e-30 0 1 .011 1 0 -1346145417358002e-30 14
 202 157 204 ?200 205 206 4 199 +0 0 200 205 21 52 203 203 0 205 199 207 0 +8076
872504148e-31 0 6e-4 -1346145417358002e-30 0 -1 .01095 .923879532511285 .3826834
323650945 -1 0 1346145417358002e-30 14 205 162 208 ?202 209 210 4 203 +0 0 202 2
09 21 52 207 204 0 209 203 211 0 +835566834854605e-33 0 .000620710678118654 1346
145417358002e-30 0 1 .011 .923879532511283 .382683432365098 1 0 -134614541735800
2e-30 14 209 167 212 ?205 213 214 4 207 +0 0 205 213 21 51 211 205 0 213 207 215
 0 +0 0 0 1346145417358002e-30 0 1 .011 1 0 -1346145417358002e-30 14 213 172 216
 ?209 217 218 4 211 +0 0 209 217 21 52 215 206 0 217 211 219 0 +2692290834716e-3
0 0 .002 -1346145417358002e-30 0 -1 .01095 .923879532511286 .3826834323650915 -1
 0 1346145417358002e-30 14 217 177 220 ?213 221 222 4 215 +0 0 213 221 21 52 219
 207 0 221 215 18 0 +2720170419155805e-33 0 .002020710678118655 1346145417358002
e-30 0 1 .011 .923879532511281 .382683432365105 1 0 -1346145417358002e-30 14 221
 182 223 ?217 224 225 4 219 +0 0 217 224 21 51 18 208 0 224 219 5 0 +0 0 0 13461
45417358002e-30 0 1 .011 1 0 -1346145417358002e-30 14 224 187 226 ?221 17 227 4
 18 +0 0 221 17 21 81 1 226 1870 175 224 228 0 229 223 230 14 17 190 229 ?224 19
3 231 4 5 +0 0 224 193 21 15 227 325 0 232 224 233 17 232 0 227 232 232 0 234 23
 0 0 +15 233 186 0 235 224 0 17 235 0 233 235 235 0 22 9 0 0 -17 22 0 231 22 22
 0 235 9 0 0 +15 231 326 0 22 17 236 15 236 189 0 237 17 0 17 237 0 236 237 237
 0 238 239 0 0 -17 238 0 240 238 238 0 237 239 0 0 +16 239 102 0 ?238 241 242 24
3 0 0 1 16 241 104 0 ?244 245 239 246 0 0 1 16 242 421 0 ?71 239 247 248 0 0 1 3
1 243 210 0 239 249 246 0 +423362733759092e-31 0 .03145 1346145417358002e-30 0 1
 1 0 -1346145417358002e-30 .01 30 255 249 494 0 250 248 243 0 +-.00505 .00547722
557505166 -.001 1346145417358002e-30 0 1 31 246 211 0 241 243 251 0 +43345882438
9277e-31 0 .0322 1346145417358002e-30 0 1 1 0 -1346145417358002e-30 .01 31 251 2
12 0 245 246 252 0 +433458824389277e-31 0 .0322 1346145417358002e-30 0 1 1 0 -13
46145417358002e-30 .0035 16 245 109 0 ?253 254 241 251 0 0 1 31 252 213 0 254 25
1 255 0 +446920278562857e-31 0 .0332 1346145417358002e-30 0 1 1 0 -1346145417358
002e-30 .0035 16 254 114 0 ?256 257 245 252 0 0 1 31 255 214 0 257 252 258 0 +44
6920278562857e-31 0 .0332 1346145417358002e-30 0 1 1 0 -1346145417358002e-30 .00
175 16 257 119 0 ?259 260 254 255 0 0 1 31 258 215 0 260 255 261 0 +461727878153
795e-31 0 .0343 1346145417358002e-30 0 1 1 0 -1346145417358002e-30 .00175 16 260
 124 0 ?262 263 257 258 0 0 1 31 261 216 0 263 258 264 0 +461727878153795e-31 0
 .0343 1346145417358002e-30 0 1 1 0 -1346145417358002e-30 .001 16 263 129 0 ?265
 266 260 261 0 0 1 31 264 217 0 266 261 267 0 +542496603195275e-31 0 .0403 13461
45417358002e-30 0 1 1 0 -1346145417358002e-30 .001 16 266 134 0 ?268 269 263 264
 0 0 1 31 267 218 0 269 264 270 0 +-1195617309475622e-48 0 -888178419700145e-33
 1346145417358002e-30 0 1 1 0 -1346145417358002e-30 .011 16 269 149 0 ?271 272 2
66 267 0 0 1 31 270 219 0 272 267 273 0 +779807665974996e-33 0 .0005792893218813
44 1346145417358002e-30 0 1 1 0 -1346145417358002e-30 .011 16 272 154 0 ?274 275
 269 270 0 0 1 31 273 220 0 275 270 276 0 +8076872504148e-31 0 6e-4 134614541735
8002e-30 0 1 1 0 -1346145417358002e-30 .01095 16 275 159 0 ?277 278 272 273 0 0
 1 31 276 221 0 278 273 279 0 +835566834854605e-33 0 .000620710678118654 1346145
417358002e-30 0 1 1 0 -1346145417358002e-30 .011 16 278 164 0 ?280 281 275 276 0
 0 1 31 279 222 0 281 276 282 0 +26644112502762e-31 0 .001979289321881345 134614
5417358002e-30 0 1 1 0 -1346145417358002e-30 .011 16 281 169 0 ?283 284 278 279
 0 0 1 31 282 223 0 284 279 19 0 +2692290834716e-30 0 .002 1346145417358002e-30
 0 1 1 0 -1346145417358002e-30 .01095 16 284 174 0 ?285 23 281 282 0 0 1 31 19 2
24 0 23 282 6 0 +2720170419155805e-33 0 .002020710678118655 1346145417358002e-30
 0 1 1 0 -1346145417358002e-30 .011 16 23 179 0 ?232 9 284 19 0 0 1 17 285 0 225
 285 285 0 286 284 0 0 +15 225 324 0 285 221 287 17 286 0 288 286 286 0 285 284
 0 0 -15 288 176 0 286 217 0 15 287 181 0 234 221 0 17 234 0 287 234 234 0 232 2
3 0 0 -17 283 0 222 283 283 0 289 281 0 0 +15 222 323 0 283 217 288 17 289 0 290
 289 289 0 283 281 0 0 -15 290 171 0 289 213 0 17 280 0 218 280 280 0 291 278 0
 0 +15 218 322 0 280 213 290 17 291 0 292 291 291 0 280 278 0 0 -15 292 166 0 29
1 209 0 17 277 0 214 277 277 0 293 275 0 0 +15 214 321 0 277 209 292 17 293 0 29
4 293 293 0 277 275 0 0 -15 294 161 0 293 205 0 17 274 0 210 274 274 0 295 272 0
 0 +15 210 320 0 274 205 294 17 295 0 296 295 295 0 274 272 0 0 -15 296 156 0 29
5 202 0 17 271 0 206 271 271 0 297 269 0 0 +15 206 319 0 271 202 296 17 297 0 19
7 297 297 0 271 269 0 0 -15 197 151 0 297 15 298 15 298 626 0 51 15 299 17 51 0
 298 54 57 49 300 301 0 302 -15 299 1171 0 303 15 0 17 303 0 299 304 305 33 118
 306 0 0 +17 304 0 299 307 303 123 40 308 0 0 +17 305 0 299 303 307 116 122 309
 0 0 +17 118 0 310 311 312 116 303 306 0 313 -16 306 1228 0 ?303 314 309 315 0 0
 1 16 314 1200 0 ?316 317 306 318 0 0 1 16 309 1224 0 ?305 306 319 320 0 0 1 30
 315 1279 0 306 320 321 0 +.0051 -.001 -522915519385669e-32 1 0 -158206781009085
e-29 30 320 1280 0 309 322 315 0 +.0051 .001 -522915519385669e-32 -2074065415031
545e-60 -1 -770371977754895e-45 30 321 1278 0 323 315 324 0 +.0051 -.001 -.0042
 1346145417358002e-30 0 1 16 323 1210 0 ?313 325 326 321 0 0 1 30 324 1277 0 325
 321 327 0 +.0051 .001 -.0042 1346145417358002e-30 0 1 16 325 1206 0 ?328 329 32
3 324 0 0 1 30 327 1276 0 329 324 330 0 +.0053 .001 -.0042 1346145417358002e-30
 0 1 16 329 1202 0 ?331 332 325 327 0 0 1 30 330 1275 0 326 327 333 0 +.0053 -.0
01 -.0042 1346145417358002e-30 0 1 16 326 1214 0 ?312 323 334 330 0 0 1 31 333 1
017 0 335 330 336 0 +-.0053 1517883041479705e-32 -.0033 -1 0 0 0 -1 -18369701987
2103e-30 .0003999999999999855 16 335 956 0 ?337 338 339 333 0 0 1 30 336 1016 0
 338 333 340 0 +-.0053 4e-4 -.00205 -1387778780781446e-30 1301042606982606e-31 -
1 16 338 952 0 ?45 341 335 336 0 0 1 31 340 1015 0 341 336 342 0 +-.0053 4336808
68994202e-33 -.00205 -1 0 0 0 -1 -183697019872103e-30 4e-4 16 341 948 0 ?343 344
 338 340 0 0 1 30 342 1014 0 344 340 345 0 +-.0053 -4e-4 -.0033 1387778780781446
e-30 1301042606982606e-31 1 16 344 944 0 ?346 301 341 342 0 0 1 30 345 1013 0 34
7 342 348 0 +-.0051 -4e-4 -.0033 -1346145417358002e-30 -1301042606982604e-31 -1
 16 347 924 0 ?349 350 351 345 0 0 1 31 348 1012 0 351 345 352 0 --.0051 7084610
67588929e-33 -.00205 -1 -1037032707515772e-60 1346145417358002e-30 1346145417358
002e-30 0 1 4e-4 16 351 920 0 ?353 347 354 348 0 0 1 30 352 1011 0 354 348 355 0
 +-.0051 4e-4 -.00204999999999997 1346145417358002e-30 -1301042606982606e-31 1 1
6 354 932 0 ?356 351 332 352 0 0 1 31 355 1010 0 332 352 357 0 --.0051 154536106
133918e-31 -.0033 -1 -1037032707515772e-60 1346145417358002e-30 1346145417358002
e-30 0 1 .0003999999999999855 16 332 928 0 ?48 354 329 355 0 0 1 30 357 1009 0 3
50 355 358 0 +.01263 -.000399999999999973 -.00205 -1 -137390099297363e-29 851192
252206858e-46 16 350 940 0 ?102 359 347 357 0 0 1 30 358 1008 0 359 357 360 0 +.
01263 .000400000000000025 -.00205 -1 -137390099297363e-29 851192252206858e-46 16
 359 936 0 ?105 361 350 358 0 0 1 30 360 1007 0 361 358 362 0 +.01263 .000400000
0000000275 -.0033 -1 -137390099297363e-29 851192252206858e-46 16 361 938 0 ?363
 339 359 360 0 0 1 30 362 1006 0 339 360 364 0 +.01263 -.000399999999999973 -.00
33 -1 -137390099297363e-29 851192252206858e-46 16 339 942 0 ?99 335 361 362 0 0
 1 30 364 729 0 365 362 366 0 +-.0053 -.001 -.0042 433680868994202e-30 1 7703719
77754895e-45 16 365 667 0 ?367 368 369 364 0 0 1 30 366 728 0 368 364 370 0 +-.0
053 .001 -.0042 1 -1084202172485506e-30 -111022302462516e-29 16 368 669 0 ?92 37
1 365 366 0 0 1 30 370 727 0 371 366 372 0 +-.0051 .001 -.0042 0 -1 -77037197775
4895e-45 16 371 671 0 ?89 373 368 370 0 0 1 30 372 726 0 373 370 374 0 +-.0051 -
.001 -.0042 -1 0 1110223024625154e-30 16 373 673 0 ?97 375 371 372 0 0 1 30 374
 725 0 301 372 376 0 +-.0053 -.001 872357266811996e-32 433680868994202e-30 1 770
371977754895e-45 16 301 643 0 ?300 377 344 374 0 0 1 30 376 724 0 377 374 378 0
 +-.0053 .001 872357266811996e-32 1 -1084202172485506e-30 -111022302462516e-29 1
6 377 649 0 ?379 380 301 376 0 0 1 30 378 723 0 380 376 381 0 +-.0051 .001 85015
2806319493e-32 0 -1 -770371977754895e-45 16 380 655 0 ?382 369 377 378 0 0 1 30
 381 722 0 369 378 383 0 +-.0051 -.001 850152806319493e-32 -1 0 1110223024625154
e-30 16 369 661 0 ?302 365 380 381 0 0 1 30 383 721 0 384 381 385 0 +-.0051 -.00
1 -.0042 1346145417358002e-30 0 1 16 384 665 0 ?386 387 375 383 0 0 1 30 385 720
 0 387 383 388 0 +-.0051 .001 -.0042 1346145417358002e-30 0 1 16 387 659 0 ?389
 390 384 385 0 0 1 30 388 719 0 390 385 391 0 +-.0053 .001 -.0042 13461454173580
02e-30 0 1 16 390 653 0 ?392 393 387 388 0 0 1 30 391 718 0 375 388 394 0 +-.005
3 -.001 -.0042 1346145417358002e-30 0 1 16 375 647 0 ?395 384 373 391 0 0 1 30 3
94 505 0 396 391 397 0 +-.00505 .00547722557505166 -.001 269208367334109e-29 -1
 -379755098897601e-44 16 396 419 0 ?398 399 400 394 0 0 1 31 397 504 0 399 394 4
01 0 +-1346145417358004e-33 -615997428264364e-62 -.001 851192252206884e-46 -1849
47052559506e-44 1 1224646799147352e-31 1 184947052559506e-44 .00745 16 399 423 0
 ?402 403 396 397 0 0 1 30 401 503 0 403 397 404 0 +.00505 -.00547722557505167 -
.001 0 1 140650036628741e-45 16 403 427 0 ?405 406 399 401 0 0 1 31 404 502 0 40
6 401 407 0 +-1346145417358004e-33 -615997428264364e-62 -.001 851192252206884e-4
6 -184947052559506e-44 1 1224646799147352e-31 1 184947052559506e-44 .00745 16 40
6 431 0 ?408 250 403 404 0 0 1 30 407 501 0 393 404 409 0 +-.00505 .005477225575
05166 846336889459564e-32 269208367334109e-29 -1 -379755098897601e-44 16 393 435
 0 ?410 411 390 407 0 0 1 31 409 500 0 411 407 412 0 +-2241782455266725e-48 -615
997428264364e-62 166533453693772e-32 851192252206884e-46 -184947052559506e-44 1
 1224646799147352e-31 1 184947052559506e-44 .00745 16 411 439 0 ?413 414 393 409
 0 0 1 30 412 499 0 414 409 415 0 +.00505 -.00547722557505167 -513269982072018e-
32 0 1 140650036628741e-45 16 414 443 0 ?416 400 411 412 0 0 1 31 415 498 0 400
 412 417 0 +-2241782455266725e-48 -615997428264364e-62 166533453693772e-32 85119
2252206884e-46 -184947052559506e-44 1 1224646799147352e-31 1 184947052559506e-44
 .00745 16 400 447 0 ?196 396 414 415 0 0 1 30 417 497 0 418 415 419 0 +.00505 .
00547722557505167 -.001 1346145417358002e-30 0 1 16 418 429 0 ?64 247 250 417 0
 0 1 30 419 496 0 247 417 248 0 +.00505 -.00547722557505166 -.001 13461454173580
02e-30 0 1 16 247 425 0 ?68 242 418 419 0 0 1 30 248 495 0 242 419 249 0 +-.0050
5 -.00547722557505169 -.001 1346145417358002e-30 0 1 17 68 0 420 421 402 66 77 2
47 0 422 +15 420 468 0 421 423 0 17 421 0 420 80 68 69 413 411 0 410 -17 402 0 4
20 68 80 75 424 399 0 425 +17 77 0 426 405 422 75 68 247 0 402 -17 422 0 426 77
 64 66 416 414 0 413 -15 426 473 0 422 427 0 17 64 0 426 422 405 62 74 418 0 428
 +17 416 0 188 196 413 62 422 414 0 0 +17 413 0 188 416 410 66 421 411 0 0 +17 4
10 0 188 413 196 69 60 393 0 0 +17 196 0 188 410 416 58 428 400 0 0 +17 60 0 429
 82 71 58 410 393 0 430 -15 429 463 0 60 431 0 17 82 0 429 398 60 65 430 250 0 4
08 -17 71 0 429 60 398 69 80 242 0 421 +17 430 0 432 428 408 58 82 250 0 196 +15
 432 478 0 428 433 0 17 428 0 432 74 430 62 196 400 0 416 -17 408 0 432 430 74 6
5 434 406 0 435 +16 250 433 0 ?430 418 406 249 0 0 1 17 74 0 432 408 428 61 64 4
18 0 405 -17 434 0 436 425 435 61 408 406 0 0 -17 435 0 436 434 424 65 398 396 0
 0 -15 436 483 0 435 437 0 17 424 0 436 435 425 78 402 399 0 398 -17 398 0 429 7
1 82 78 435 396 0 0 +17 425 0 436 424 434 75 405 403 0 0 -17 405 0 426 64 77 61
 425 403 0 434 +14 437 479 438 ?439 433 436 4 440 -0 0 439 433 21 81 1 438 1908
 175 437 441 0 442 443 444 14 439 688 443 ?445 437 446 4 447 -0 0 445 437 21 14
 433 474 442 ?437 427 432 4 448 +0 0 437 427 21 50 440 493 0 437 195 448 0 +-134
6145417358004e-33 -615997428264364e-62 -.001 851192252206884e-46 -18494705255950
6e-44 1 0 -1 -184947052559506e-44 50 195 712 0 187 447 440 0 +-.0053 -.001 -.004
2 1 -433680868994202e-30 -1346145417358002e-30 -1346145417358002e-30 0 -1 51 448
 491 0 433 440 449 0 +-1346145417358004e-33 -615997428264364e-62 -.001 134614541
7358002e-30 0 1 .00745 1 0 -1346145417358002e-30 50 449 490 0 427 448 450 0 +.00
505 -.00547722557505167 -.001 1 189335402259015e-60 -1346145417358002e-30 -13461
45417358002e-30 0 -1 14 427 469 451 ?433 423 426 4 449 +0 0 433 423 21 51 450 48
9 0 423 449 452 0 +-1346145417358004e-33 -615997428264364e-62 -.001 134614541735
8002e-30 0 1 .00745 1 0 -1346145417358002e-30 14 423 464 453 ?427 431 420 4 450
 +0 0 427 431 21 50 452 488 0 431 450 454 0 +-.00505 .00547722557505166 -.001 -1
 -269208367334109e-29 1346145417358002e-30 269208367334109e-29 -1 0 14 431 459 4
55 ?423 456 429 4 452 +0 0 423 456 21 51 454 193 0 456 452 457 0 +0 0 0 13461454
17358002e-30 0 1 .01 1 0 -1346145417358002e-30 14 456 107 458 ?431 459 240 4 454
 +0 0 431 459 21 50 457 194 0 459 454 460 0 +-480865347540771e-32 .0035 .0322 13
46145417358002e-30 0 1 1 0 -1346145417358002e-30 14 459 112 461 ?456 462 463 4 4
57 +0 0 456 462 21 51 460 195 0 462 457 464 0 +0 0 0 1346145417358002e-30 0 1 .0
035 1 0 -1346145417358002e-30 14 462 117 465 ?459 466 467 4 460 +0 0 459 466 21
 50 464 196 0 466 460 468 0 +-167842713411958e-31 .00175 .0332 1346145417358002e
-30 0 1 1 0 -1346145417358002e-30 14 466 122 469 ?462 470 471 4 464 +0 0 462 470
 21 51 468 197 0 470 464 472 0 +0 0 0 1346145417358002e-30 0 1 .00175 1 0 -13461
45417358002e-30 14 470 127 473 ?466 474 475 4 468 +0 0 466 474 21 50 472 198 0 4
74 468 201 0 +-1650708078998185e-32 .001 .0343 1346145417358002e-30 0 1 1 0 -134
6145417358002e-30 14 474 132 476 ?470 477 478 4 472 +0 0 470 477 21 51 201 199 0
 477 472 198 0 +0 0 0 1346145417358002e-30 0 1 .001 1 0 -1346145417358002e-30 14
 477 137 479 ?474 200 480 4 201 +0 0 474 200 21 81 1 479 1886 175 477 481 0 482
 476 483 14 200 142 482 ?477 202 484 4 198 +0 0 477 202 21 15 480 316 0 265 477
 485 17 265 0 480 265 265 0 486 263 0 0 +15 485 136 0 487 477 0 17 487 0 485 487
 487 0 268 266 0 0 -17 268 0 484 268 268 0 487 266 0 0 +15 484 317 0 268 200 0 1
7 486 0 488 486 486 0 265 263 0 0 -15 488 131 0 486 474 0 81 1 482 1884 175 200
 489 0 204 479 490 80 255 1 175 0 491 8001 0 0 0 0 3 5 0 0 0 FFFFTFTFFFFFFF2 81
 1 489 1883 492 200 0 482 493 481 494 81 1 204 1882 175 202 493 0 208 482 495 83
 255 3 490 .5960784 .6666667 .6862745 81 1 493 1881 492 202 0 204 496 489 497 81
 1 208 1880 175 205 496 0 212 204 498 83 3 495 .5960784 .6666667 .6862745 81 1 4
96 1879 492 205 0 208 499 493 500 81 1 212 1878 175 209 499 0 216 208 501 83 3 4
98 .5960784 .6666667 .6862745 81 1 499 1877 492 209 0 212 502 496 503 81 1 216 1
876 175 213 502 0 220 212 504 83 3 501 .5960784 .6666667 .6862745 81 1 502 1875
 492 213 0 216 505 499 506 81 1 220 1874 175 217 505 0 223 216 507 83 3 504 .596
0784 .6666667 .6862745 81 1 505 1873 492 217 0 220 508 502 509 81 1 223 1872 175
 221 508 0 226 220 510 83 3 507 .5960784 .6666667 .6862745 81 1 508 1871 492 221
 0 223 228 505 511 83 3 510 .5960784 .6666667 .6862745 80 1 492 512 513 8015 0 0
 0 0 3 5 0 0 0 FFFFTFFFFFFFFF2 81 1 228 1869 492 224 0 226 514 508 515 83 1 511
 0 81 1 514 1867 492 17 0 229 516 228 517 83 1 515 0 81 1 229 1868 175 17 514 0
 518 226 519 81 1 516 1865 492 193 0 518 520 514 521 83 1 517 0 14 193 693 518 ?
17 187 522 4 523 -0 0 17 187 21 81 1 518 1866 175 193 516 0 191 229 524 81 1 520
 1863 492 187 0 191 190 516 525 83 1 521 0 81 1 191 1864 175 187 520 0 186 518 5
26 81 1 190 1861 492 15 0 186 0 520 527 83 1 525 0 83 1 527 0 83 3 526 .5960784
 .6666667 .6862745 83 3 524 .5960784 .6666667 .6862745 15 522 697 0 382 193 528
 50 523 714 0 193 529 447 0 +-.0051 .001 -.0042 -1 -1037032707515772e-60 1346145
417358002e-30 1346145417358002e-30 0 1 50 529 715 0 445 530 523 0 +-.0051 -.001
 -.0042 0 1 0 0 0 1 50 447 713 0 439 523 195 0 +-.0053 .001 -.0042 -108420217248
5506e-30 -1 1459493785980954e-45 1 -1084202172485506e-30 0 14 445 698 531 ?532 4
39 533 4 529 -0 0 532 439 21 50 530 717 0 532 534 529 0 +-.0053 .001 -.0042 -111
022302462516e-29 1251854463851704e-45 -1 -1 0 111022302462516e-29 14 532 703 535
 ?536 445 537 4 530 +0 0 536 445 21 51 534 1000 0 538 539 530 0 +.01263 39812875
21881435e-32 -.0033 -1 -137390099297363e-29 851192252206858e-46 .000399999999999
9855 137390099297363e-29 -1 0 14 538 988 540 ?541 542 543 4 534 -0 0 541 542 21
 50 539 1001 0 544 545 534 0 +.01263 .000400000000000027 -.00205 -13739009929736
3e-29 1 1301042606982624e-31 -1 -137390099297363e-29 0 14 544 978 546 ?542 536 5
47 4 539 -0 0 542 536 21 51 545 1002 0 536 548 539 0 +.01263 250677256730115e-31
 -.00205 -1 -137390099297363e-29 851192252206858e-46 4e-4 137390099297363e-29 -1
 0 14 536 973 549 ?544 532 550 4 545 -0 0 544 532 21 50 548 1003 0 542 551 545 0
 +.01263 -.000399999999999973 -.0033 137390099297363e-29 -1 1301042606982586e-31
 1 137390099297363e-29 0 14 542 983 552 ?538 544 553 4 548 -0 0 538 544 21 50 55
1 1269 0 541 554 548 0 +.0053 -.001 -.0042 -1 -433680868994202e-30 1346145417358
002e-30 -1346145417358002e-30 0 -1 14 541 1240 555 ?556 538 557 4 551 -0 0 556 5
38 21 50 554 1270 0 556 558 551 0 +.0053 .001 -.0042 1084202172485506e-30 -1 -14
59493785980954e-45 -1 -1084202172485506e-30 2692290834716005e-30 14 556 1245 559
 ?560 541 561 4 554 -0 0 560 541 21 50 558 1271 0 560 562 554 0 +.0051 .001 -.00
42 1 -1037032707515772e-60 -1346145417358002e-30 1346145417358002e-30 0 1 14 560
 1250 563 ?564 556 565 4 558 -0 0 564 556 21 50 562 1272 0 564 566 558 0 +.0051
 -.001 -.0042 0 1 0 2692290834716005e-30 0 1 14 564 1255 567 ?568 560 310 4 562
 -0 0 568 560 21 50 566 1274 0 568 569 562 0 +.0053 .001 -.0042 -158206781009084
5e-30 1251854463851704e-45 -1 1 0 -1582067810090845e-30 14 568 1260 570 ?571 564
 572 4 566 +0 0 571 564 21 51 569 1596 0 573 574 566 0 +-.01263 3981287521881435
e-32 -.003299999999999965 1 -137390099297363e-29 -2692290834716005e-30 .00039999
99999999855 -137390099297363e-29 -1 3698941051190125e-45 14 573 1584 575 ?576 57
7 34 4 569 -0 0 576 577 21 50 574 1597 0 578 579 569 0 +-.01263 .000400000000000
027 -.00204999999999996 137390099297363e-29 1 1301042606982588e-31 1 -1373900992
97363e-29 -2692290834716005e-30 14 578 1574 580 ?577 571 581 4 574 -0 0 577 571
 21 51 579 1598 0 571 582 574 0 +-.01263 250677256730115e-31 -.00204999999999996
5 1 -137390099297363e-29 -2692290834716005e-30 4e-4 -137390099297363e-29 -1 3698
941051190125e-45 14 571 1569 583 ?578 568 26 4 579 -0 0 578 568 21 50 582 1599 0
 577 584 579 0 +-.01263 -.000399999999999973 -.00329999999999996 -13739009929736
3e-29 -1 1301042606982622e-31 -1 137390099297363e-29 2692290834716005e-30 14 577
 1579 585 ?573 578 586 4 582 -0 0 573 578 21 51 584 1680 0 587 588 582 0 +-.006
 0 .0322 -1346145417358e-27 0 -1 8e-4 -1 0 1346145417358e-27 14 587 1674 589 ?59
0 576 591 4 584 -0 0 590 576 21 52 588 1682 0 576 592 584 0 +-.006 0 .0277 13461
45417358e-27 0 1 8e-4 .857167300702112 .515038074910054 1 0 -1346145417358e-27 1
4 576 1667 593 ?587 573 594 4 588 -0 0 587 573 21 51 592 1717 0 595 596 588 0 +-
.003 -.0051961524227066 .0322 -726726801491042e-30 -119677333354819e-29 -1 8e-4
 -.5 -.866025403784439 1399799510170042e-30 14 595 1711 597 ?598 590 599 4 592 -
0 0 598 590 21 52 596 1719 0 590 600 592 0 +-.003 -.0051961524227066 .0277 72672
6801491042e-30 119677333354819e-29 1 8e-4 .857167300702112 .515038074910054 .5 .
866025403784439 -1399799510170042e-30 14 590 1704 601 ?595 587 602 4 596 -0 0 59
5 587 21 51 600 1750 0 603 604 596 0 +.003 -.0051961524227066 .0322 619418615866
958e-30 -1258727743404506e-30 -1 8e-4 .5 -.866025403784439 1399799510170042e-30
 14 603 1744 605 ?606 598 607 4 600 -0 0 606 598 21 52 604 1752 0 598 608 600 0
 +.003 -.0051961524227066 .0277 -619418615866958e-30 1258727743404506e-30 1 8e-4
 .857167300702112 .515038074910054 -.5 .866025403784439 -1399799510170042e-30 14
 598 1737 609 ?603 595 610 4 604 -0 0 603 595 21 51 608 1783 0 611 612 604 0 +.0
06 165839564303384e-32 .0322 1346145417358e-27 -1239088197126294e-31 -1 8e-4 1 -
3885780586188045e-31 1346145417358e-27 14 611 1777 613 ?182 606 614 4 608 -0 0 1
82 606 21 52 612 1785 0 606 184 608 0 +.006 1100805954327008e-33 .0277 -13461454
17358e-27 1239088197126294e-31 1 8e-4 .857167300702112 .515038074910054 -1 38857
80586188045e-31 -1346145417358e-27 14 606 1770 615 ?611 603 616 4 612 -0 0 611 6
03 21 51 184 1816 0 172 617 612 0 +.003 .0051961524227066 .0322 726726801491042e
-30 1072864513835562e-30 -1 8e-4 .5 .866025403784438 129249132454596e-29 52 617
 1818 0 182 181 184 0 +.003 .0051961524227066 .0277 -726726801491042e-30 -107286
4513835562e-30 1 8e-4 .857167300702112 .515038074910054 -.5 -.866025403784438 -1
29249132454596e-29 14 182 1803 618 ?172 611 619 4 617 -0 0 172 611 21 51 181 184
9 0 171 174 617 0 +-.003 .0051961524227066 .0322 -619418615866958e-30 1134818923
691876e-30 -1 8e-4 -.5 .866025403784439 129249132454596e-29 81 1 618 1958 175 18
2 620 0 613 177 621 15 619 1805 0 622 182 623 17 622 0 619 622 622 0 624 625 0 0
 -15 623 1806 0 165 182 0 17 165 0 623 165 165 163 0 0 0 0 ?17 624 0 183 624 624
 0 622 625 0 0 +16 625 1800 0 ?624 626 627 628 0 0 1 16 626 1768 0 ?629 630 625
 631 0 0 1 16 627 1801 0 ?632 625 633 634 0 0 1 31 628 1820 0 625 635 634 0 +.00
3 .0051961524227066 .0277 726726801491042e-30 1072864513835562e-30 -1 .5 .866025
403784438 129249132454596e-29 8e-4 31 635 1852 0 636 637 628 0 +-.003 .005196152
4227066 .0322 -619418615866958e-30 1134818923691876e-30 -1 -.5 .866025403784439
 129249132454596e-29 8e-4 31 634 1819 0 627 628 638 0 +.003 .0051961524227066 .0
322 726726801491042e-30 1072864513835562e-30 -1 .5 .866025403784438 129249132454
596e-29 8e-4 31 638 1787 0 630 634 631 0 +.006 1100805954327008e-33 .0277 134614
5417358e-27 -1239088197126294e-31 -1 1 -3885780586188045e-31 1346145417358e-27 8
e-4 16 630 1767 0 ?639 640 626 638 0 0 1 31 631 1786 0 626 638 641 0 +.006 16583
9564303384e-32 .0322 1346145417358e-27 -1239088197126294e-31 -1 1 -3885780586188
045e-31 1346145417358e-27 8e-4 31 641 1754 0 642 631 643 0 +.003 -.0051961524227
066 .0277 619418615866958e-30 -1258727743404506e-30 -1 .5 -.866025403784439 1399
799510170042e-30 8e-4 16 642 1734 0 ?644 645 640 641 0 0 1 31 643 1753 0 640 641
 646 0 +.003 -.0051961524227066 .0322 619418615866958e-30 -1258727743404506e-30
 -1 .5 -.866025403784439 1399799510170042e-30 8e-4 16 640 1735 0 ?647 642 630 64
3 0 0 1 31 646 1721 0 648 643 649 0 +-.003 -.0051961524227066 .0277 -72672680149
1042e-30 -119677333354819e-29 -1 -.5 -.866025403784439 1399799510170042e-30 8e-4
 16 648 1701 0 ?650 651 645 646 0 0 1 31 649 1720 0 645 646 652 0 +-.003 -.00519
61524227066 .0322 -726726801491042e-30 -119677333354819e-29 -1 -.5 -.86602540378
4439 1399799510170042e-30 8e-4 16 645 1702 0 ?653 648 642 649 0 0 1 31 652 1684
 0 654 649 655 0 +-.006 0 .0277 -1346145417358e-27 0 -1 -1 0 1346145417358e-27 8
e-4 16 654 1664 0 ?656 38 651 652 0 0 1 31 655 1683 0 651 652 657 0 +-.006 0 .03
22 -1346145417358e-27 0 -1 -1 0 1346145417358e-27 8e-4 16 651 1665 0 ?658 654 64
8 655 0 0 1 31 657 1613 0 659 655 660 0 +.0053 1517883041479705e-32 -.0033 -1 0
 2692290834716005e-30 -494565802966307e-45 -1 -183697019872103e-30 .000399999999
9999855 16 659 1552 0 ?661 662 663 657 0 0 1 30 660 1612 0 662 657 664 0 +.0053
 4e-4 -.00205 -1304512053934558e-30 1301042606982606e-31 -1 16 662 1532 0 ?665 6
66 659 660 0 0 1 31 664 1611 0 666 660 667 0 +.0053 433680868994202e-33 -.00205
 -1 0 2692290834716005e-30 -494565802966307e-45 -1 -183697019872103e-30 4e-4 16
 666 1522 0 ?668 669 662 664 0 0 1 30 667 1610 0 669 664 670 0 +.0053 -4e-4 -.00
33 1304512053934558e-30 1301042606982606e-31 1 16 669 1542 0 ?671 308 666 667 0
 0 1 30 670 1609 0 672 667 673 0 +.0051 -4e-4 -.0033 -1346145417358002e-30 -1301
042606982604e-31 -1 16 672 1536 0 ?674 675 676 670 0 0 1 31 673 1608 0 676 670 6
77 0 -.0051 708461067588929e-33 -.00205 -1 1037032707515772e-60 1346145417358002
e-30 1346145417358002e-30 0 1 4e-4 16 676 1516 0 ?678 672 679 673 0 0 1 30 677 1
607 0 679 673 680 0 +.0051 4e-4 -.00205 1346145417358002e-30 -1301042606982606e-
31 1 16 679 1526 0 ?681 676 38 677 0 0 1 31 680 1606 0 38 677 682 0 -.0051 15453
6106133918e-31 -.0033 -1 1037032707515772e-60 1346145417358002e-30 1346145417358
002e-30 0 1 .0003999999999999855 16 38 1546 0 ?37 679 654 680 0 0 1 30 682 1605
 0 675 680 683 0 +-.01263 -.000399999999999973 -.00204999999999996 1 -1373900992
97363e-29 -2692290834716005e-30 16 675 1520 0 ?684 30 672 682 0 0 1 30 683 1604
 0 30 682 685 0 +-.01263 .000400000000000025 -.002049999999999965 1 -13739009929
7363e-29 -2692290834716005e-30 16 30 1530 0 ?24 686 675 683 0 0 1 30 685 1603 0
 686 683 687 0 +-.01263 .0004000000000000275 -.00329999999999996 1 -137390099297
363e-29 -2692290834716005e-30 16 686 1550 0 ?688 663 30 685 0 0 1 30 687 1602 0
 663 685 318 0 +-.01263 -.000399999999999973 -.00329999999999996 1 -137390099297
363e-29 -2692290834716005e-30 16 663 1540 0 ?35 659 686 687 0 0 1 30 318 1286 0
 314 687 689 0 +.0053 -.001 -.0042 -433680868994202e-30 1 1937967006539655e-45 3
0 689 1285 0 317 318 690 0 +.0053 .001 -.0042 -1 -1084202172485506e-30 158206781
0090845e-30 16 317 1204 0 ?691 692 314 689 0 0 1 30 690 1284 0 692 689 693 0 +.0
051 .001 -.0042 -2074065415031545e-60 -1 -770371977754895e-45 16 692 1208 0 ?694
 334 317 690 0 0 1 30 693 1283 0 334 690 695 0 +.0051 -.001 -.0042 1 0 -15820678
1009085e-29 16 334 1212 0 ?136 326 692 693 0 0 1 30 695 1282 0 308 693 322 0 +.0
053 -.001 -554556875587487e-32 -433680868994202e-30 1 1937967006539655e-45 16 30
8 1216 0 ?304 319 669 695 0 0 1 30 322 1281 0 319 695 320 0 +.0053 .001 -5545568
75587486e-32 -1 -1084202172485506e-30 1582067810090845e-30 16 319 1220 0 ?307 30
9 308 322 0 0 1 17 307 0 299 305 304 120 125 319 0 0 +17 125 0 561 696 328 123 3
07 319 0 331 -15 561 1249 0 125 556 0 17 696 0 561 691 125 132 331 329 0 316 -17
 328 0 561 125 691 120 697 325 0 307 +17 331 0 698 40 316 123 696 329 0 304 +15
 698 1244 0 40 541 0 17 40 0 698 699 331 33 304 308 0 312 -17 316 0 698 331 699
 132 700 314 0 0 +17 699 0 698 316 40 119 312 326 0 0 -17 700 0 572 128 134 119
 316 314 0 699 -15 572 1264 0 700 568 0 17 128 0 572 131 700 115 136 334 0 311 -
17 134 0 572 700 131 132 691 317 0 696 -17 131 0 572 134 128 129 694 692 0 697 -
17 691 0 561 328 696 129 134 317 0 0 +17 694 0 701 313 697 115 131 692 0 0 +17 6
97 0 701 694 122 129 328 325 0 691 -15 701 1254 0 122 560 0 17 122 0 701 697 313
 120 305 309 0 328 -17 313 0 701 122 694 116 311 323 0 305 +17 311 0 310 136 118
 115 313 323 0 694 -15 310 1259 0 118 564 0 17 136 0 310 312 311 119 128 334 0 7
00 +17 312 0 310 118 136 33 699 326 0 303 +17 35 0 34 143 32 126 39 663 0 661 +1
5 34 1588 0 32 573 0 17 143 0 34 36 35 141 661 659 0 688 -17 39 0 586 702 138 25
 35 663 0 674 -17 661 0 557 671 665 126 143 659 0 0 +15 557 1483 0 661 541 698 1
7 671 0 557 668 661 139 138 669 0 0 +17 665 0 557 661 668 141 31 662 0 0 +17 668
 0 557 665 671 10 27 666 0 0 +17 31 0 581 29 688 10 665 662 0 668 -15 581 1578 0
 703 578 0 17 29 0 581 703 31 147 24 30 0 28 -17 688 0 581 31 703 141 36 686 0 6
65 +17 703 0 581 688 29 149 681 679 0 37 -17 36 0 34 32 143 149 688 686 0 703 -1
7 681 0 565 678 37 147 703 679 0 0 +17 37 0 565 681 674 149 32 38 0 0 +15 565 14
60 0 681 560 701 17 674 0 565 37 678 25 702 672 0 0 +17 678 0 565 674 681 144 28
 676 0 0 +17 702 0 586 684 39 144 674 672 0 678 -15 586 1583 0 702 577 0 17 684
 0 586 138 702 139 146 675 0 671 +17 138 0 586 39 684 126 671 669 0 35 -17 146 0
 26 28 27 144 684 675 0 702 -15 26 1573 0 28 571 0 17 28 0 26 24 146 147 678 676
 0 681 -17 27 0 26 146 24 139 668 666 0 684 -17 658 0 704 658 658 0 705 651 0 0
 +15 704 1656 0 658 459 706 17 705 0 707 705 705 0 658 651 0 0 -15 707 1677 0 70
5 587 0 15 706 311 0 244 459 708 17 244 0 706 244 244 0 709 241 0 0 +15 708 111
 0 710 459 0 17 710 0 708 710 710 0 253 245 0 0 -17 253 0 467 253 253 0 710 245
 0 0 +15 467 312 0 253 462 711 15 711 116 0 712 462 0 17 712 0 711 712 712 0 256
 254 0 0 -17 256 0 471 256 256 0 712 254 0 0 +15 471 313 0 256 466 713 15 713 12
1 0 714 466 0 17 714 0 713 714 714 0 259 257 0 0 -17 259 0 475 259 259 0 714 257
 0 0 +15 475 314 0 259 470 715 15 715 126 0 716 470 0 17 716 0 715 716 716 0 262
 260 0 0 -17 262 0 478 262 262 0 716 260 0 0 +15 478 315 0 262 474 488 17 709 0
 717 709 709 0 244 241 0 0 -15 717 106 0 709 456 0 17 656 0 591 656 656 0 718 65
4 0 0 +15 591 1676 0 656 587 707 17 718 0 594 718 718 0 656 654 0 0 -15 594 1669
 0 718 576 719 15 719 1670 0 153 576 0 17 153 0 719 153 153 151 0 0 0 0 ?17 653
 0 720 653 653 0 721 645 0 0 +15 720 1693 0 653 459 704 17 721 0 722 721 721 0 6
53 645 0 0 -15 722 1714 0 721 595 0 17 650 0 599 650 650 0 723 648 0 0 +15 599 1
713 0 650 595 722 17 723 0 602 723 723 0 650 648 0 0 -15 602 1706 0 723 590 724
 15 724 1707 0 156 590 0 17 156 0 724 156 156 154 0 0 0 0 ?17 647 0 725 647 647
 0 726 640 0 0 +15 725 1726 0 647 459 720 17 726 0 727 726 726 0 647 640 0 0 -15
 727 1747 0 726 603 0 17 644 0 607 644 644 0 728 642 0 0 +15 607 1746 0 644 603
 727 17 728 0 610 728 728 0 644 642 0 0 -15 610 1739 0 728 598 729 15 729 1740 0
 159 598 0 17 159 0 729 159 159 157 0 0 0 0 ?17 639 0 614 639 639 0 730 630 0 0
 +15 614 1779 0 639 611 731 17 730 0 616 730 730 0 639 630 0 0 -15 616 1772 0 73
0 606 732 15 732 1773 0 162 606 0 17 162 0 732 162 162 160 0 0 0 0 ?15 731 1780
 0 733 611 0 17 733 0 731 733 733 0 629 626 0 0 -17 629 0 734 629 629 0 733 626
 0 0 +15 734 1759 0 629 459 725 16 636 1834 0 ?735 633 0 635 0 0 1 31 637 1853 0
 633 0 635 0 +-.003 .00519615242270661 .0277 -619418615866958e-30 11348189236918
76e-30 -1 -.5 .866025403784439 129249132454596e-29 8e-4 16 633 1833 0 ?736 627 6
36 637 0 0 1 17 736 0 180 736 736 0 185 633 0 0 +15 180 1845 0 736 171 737 17 18
5 0 173 185 185 0 736 633 0 0 -15 737 1846 0 738 171 0 17 738 0 737 738 738 0 73
5 636 0 0 -17 735 0 463 735 735 0 738 636 0 0 +15 463 1825 0 735 459 739 15 739
 1792 0 632 459 734 17 632 0 739 632 632 0 740 627 0 0 +17 740 0 741 740 740 0 6
32 627 0 0 -15 741 1813 0 740 172 0 15 183 1812 0 624 172 741 81 1 620 1957 492
 182 0 618 742 743 744 81 1 613 1956 175 611 742 0 615 618 745 81 1 177 1960 175
 172 743 0 618 170 746 83 3 621 .5960784 .6666667 .6862745 81 1 743 1959 492 172
 0 177 620 176 747 83 3 746 .5960784 .6666667 .6862745 81 1 176 1961 492 169 0 1
70 743 748 749 83 1 747 0 81 1 748 1963 492 171 0 178 176 0 750 83 1 749 0 81 1
 178 1964 175 171 748 0 170 0 751 83 1 750 0 83 3 751 .5960784 .6666667 .6862745
 81 1 742 1955 492 611 0 613 752 620 753 81 1 615 1954 175 606 752 0 605 613 754
 83 3 745 .5960784 .6666667 .6862745 81 1 752 1953 492 606 0 615 755 742 756 81
 1 605 1952 175 603 755 0 609 615 757 83 3 754 .5960784 .6666667 .6862745 81 1 7
55 1951 492 603 0 605 758 752 759 81 1 609 1950 175 598 758 0 597 605 760 83 3 7
57 .5960784 .6666667 .6862745 81 1 758 1949 492 598 0 609 761 755 762 81 1 597 1
948 175 595 761 0 601 609 763 83 3 760 .5960784 .6666667 .6862745 81 1 761 1947
 492 595 0 597 764 758 765 81 1 601 1946 175 590 764 0 589 597 766 83 3 763 .596
0784 .6666667 .6862745 81 1 764 1945 492 590 0 601 767 761 768 81 1 589 1944 175
 587 767 0 593 601 769 83 3 766 .5960784 .6666667 .6862745 81 1 767 1943 492 587
 0 589 770 764 771 81 1 593 1942 175 576 770 0 575 589 772 83 3 769 .5960784 .66
66667 .6862745 81 1 770 1941 492 576 0 593 773 767 774 81 1 575 1940 175 573 773
 0 585 593 775 83 3 772 .5960784 .6666667 .6862745 81 1 773 1939 492 573 0 575 7
76 770 777 81 1 585 1938 175 577 776 0 580 575 778 83 3 775 .5960784 .6666667 .6
862745 81 1 776 1937 492 577 0 585 779 773 780 81 1 580 1936 175 578 779 0 583 5
85 781 83 3 778 .5960784 .6666667 .6862745 81 1 779 1935 492 578 0 580 782 776 7
83 81 1 583 1934 175 571 782 0 570 580 784 83 3 781 .5960784 .6666667 .6862745 8
1 1 782 1933 492 571 0 583 785 779 786 81 1 570 1932 175 568 785 0 567 583 787 8
3 3 784 .5960784 .6666667 .6862745 81 1 785 1931 492 568 0 570 788 782 789 81 1
 567 1930 175 564 788 0 563 570 790 83 3 787 .5960784 .6666667 .6862745 81 1 788
 1929 492 564 0 567 791 785 792 81 1 563 1928 175 560 791 0 559 567 793 83 3 790
 .5960784 .6666667 .6862745 81 1 791 1927 492 560 0 563 794 788 795 81 1 559 192
6 175 556 794 0 555 563 796 83 3 793 .5960784 .6666667 .6862745 81 1 794 1925 49
2 556 0 559 797 791 798 81 1 555 1924 175 541 797 0 540 559 799 83 3 796 .596078
4 .6666667 .6862745 81 1 797 1923 492 541 0 555 800 794 801 81 1 540 1922 175 53
8 800 0 552 555 802 83 3 799 .5960784 .6666667 .6862745 81 1 800 1921 492 538 0
 540 803 797 804 81 1 552 1920 175 542 803 0 546 540 805 83 3 802 .5960784 .6666
667 .6862745 81 1 803 1919 492 542 0 552 806 800 807 81 1 546 1918 175 544 806 0
 549 552 808 83 3 805 .5960784 .6666667 .6862745 81 1 806 1917 492 544 0 546 809
 803 810 81 1 549 1916 175 536 809 0 535 546 811 83 3 808 .5960784 .6666667 .686
2745 81 1 809 1915 492 536 0 549 812 806 813 81 1 535 1914 175 532 812 0 531 549
 814 83 3 811 .5960784 .6666667 .6862745 81 1 812 1913 492 532 0 535 815 809 816
 81 1 531 1912 175 445 815 0 443 535 817 83 3 814 .5960784 .6666667 .6862745 81
 1 815 1911 492 445 0 531 818 812 819 81 1 443 1910 175 439 818 0 438 531 820 83
 3 817 .5960784 .6666667 .6862745 81 1 818 1909 492 439 0 443 441 815 821 83 3 8
20 .5960784 .6666667 .6862745 81 1 441 1907 492 437 0 438 822 818 823 83 1 821 0
 81 1 822 1905 492 433 0 442 824 441 825 83 1 823 0 81 1 442 1906 175 433 822 0
 451 438 826 81 1 824 1903 492 427 0 451 827 822 828 83 1 825 0 81 1 451 1904 17
5 427 824 0 453 442 829 81 1 827 1901 492 423 0 453 830 824 831 83 1 828 0 81 1
 453 1902 175 423 827 0 455 451 832 81 1 830 1899 492 431 0 455 833 827 834 83 1
 831 0 81 1 455 1900 175 431 830 0 458 453 835 81 1 833 1897 492 456 0 458 836 8
30 837 83 1 834 0 81 1 458 1898 175 456 833 0 461 455 838 81 1 836 1895 492 459
 0 461 839 833 840 83 1 837 0 81 1 461 1896 175 459 836 0 465 458 841 81 1 839 1
893 492 462 0 465 842 836 843 83 1 840 0 81 1 465 1894 175 462 839 0 469 461 844
 81 1 842 1891 492 466 0 469 845 839 846 83 1 843 0 81 1 469 1892 175 466 842 0
 473 465 847 81 1 845 1889 492 470 0 473 848 842 849 83 1 846 0 81 1 473 1890 17
5 470 845 0 476 469 850 81 1 848 1887 492 474 0 476 481 845 851 83 1 849 0 81 1
 476 1888 175 474 848 0 479 473 852 81 1 481 1885 492 477 0 479 489 848 853 83 1
 851 0 83 1 853 0 83 3 852 .5960784 .6666667 .6862745 83 3 850 .5960784 .6666667
 .6862745 83 3 847 .5960784 .6666667 .6862745 83 3 844 .5960784 .6666667 .686274
5 83 3 841 .5960784 .6666667 .6862745 83 3 838 .5960784 .6666667 .6862745 83 3 8
35 .5960784 .6666667 .6862745 83 3 832 .5960784 .6666667 .6862745 83 3 829 .5960
784 .6666667 .6862745 83 3 826 .5960784 .6666667 .6862745 83 1 819 0 83 1 816 0
 83 1 813 0 83 1 810 0 83 1 807 0 83 1 804 0 83 1 801 0 83 1 798 0 83 1 795 0 83
 1 792 0 83 1 789 0 83 1 786 0 83 1 783 0 83 1 780 0 83 1 777 0 83 1 774 0 83 1
 771 0 83 1 768 0 83 1 765 0 83 1 762 0 83 1 759 0 83 1 756 0 83 1 753 0 83 1 74
4 0 15 553 987 0 349 542 0 17 349 0 553 99 108 112 854 347 0 855 +17 99 0 553 34
6 349 87 114 339 0 337 +17 108 0 553 349 346 106 102 350 0 353 -17 854 0 528 856
 855 106 349 347 0 0 -17 855 0 528 854 857 112 48 332 0 0 -15 528 873 0 856 193
 0 17 857 0 528 855 856 46 356 354 0 0 -17 48 0 543 363 114 46 855 332 0 858 +15
 543 992 0 48 538 0 17 363 0 543 337 48 41 858 361 0 859 +17 114 0 543 48 337 11
2 99 339 0 349 -17 858 0 547 356 45 46 363 361 0 857 -15 547 982 0 356 544 0 17
 356 0 547 105 858 109 857 354 0 856 +17 45 0 547 858 105 41 860 338 0 363 +17 1
05 0 547 45 356 103 111 359 0 343 +17 860 0 861 862 859 103 45 338 0 0 -15 861 8
96 0 863 187 0 17 862 0 861 863 860 100 343 341 0 0 -17 859 0 861 860 863 41 337
 335 0 0 -17 863 0 861 859 862 87 346 344 0 0 -17 337 0 543 114 363 87 859 335 0
 863 +17 346 0 553 108 99 100 863 344 0 862 +17 343 0 550 111 102 103 862 341 0
 860 +15 550 977 0 353 536 0 17 111 0 550 353 343 109 105 359 0 356 -17 102 0 55
0 343 353 100 108 350 0 346 +17 353 0 550 102 111 106 856 351 0 854 +17 856 0 52
8 857 854 109 353 351 0 0 -15 537 707 0 367 532 0 17 367 0 537 92 97 93 864 365
 0 865 +17 92 0 537 89 367 90 95 368 0 866 +17 97 0 537 367 89 86 867 373 0 868
 +17 864 0 194 395 865 86 367 365 0 0 -17 865 0 194 864 300 93 392 390 0 0 -15 1
94 687 0 300 187 861 17 300 0 194 865 395 55 51 301 0 0 +17 392 0 446 379 95 55
 865 390 0 300 +15 446 692 0 379 439 0 17 379 0 446 866 392 83 57 377 0 389 +17
 95 0 446 392 866 93 92 368 0 367 -17 866 0 446 95 379 90 389 387 0 869 -17 389
 0 522 382 869 83 866 387 0 0 +17 869 0 522 389 870 90 89 371 0 0 -17 870 0 522
 869 382 72 386 384 0 867 -17 89 0 537 97 92 72 869 371 0 870 +17 382 0 522 870
 389 52 85 380 0 386 +17 386 0 533 302 867 52 870 384 0 0 +17 867 0 533 386 868
 72 97 373 0 0 -15 533 702 0 302 445 0 17 868 0 533 867 302 86 395 375 0 864 -17
 302 0 533 868 386 49 54 369 0 395 +17 395 0 194 300 864 49 868 375 0 0 +17 54 0
 298 85 51 52 302 369 0 382 -17 85 0 298 57 54 83 382 380 0 379 -17 57 0 298 51
 85 55 379 377 0 392 -83 3 519 .5960784 .6666667 .6862745 79 255 21 513 SDL/TYSA
_TRANSLUCENCY83 1 509 0 83 1 506 0 83 1 503 0 83 1 500 0 83 1 497 0 83 1 494 0 7
9 15 491 SDL/TYSA_COLOUR83 3 483 .5960784 .6666667 .6862745 15 240 310 0 238 456
 717 83 3 444 .5960784 .6666667 .6862745 17 80 0 420 402 421 78 71 242 0 424 -83
 3 230 .5960784 .6666667 .6862745 83 3 192 .5960784 .6666667 .6862745 83 3 179 .
5960784 .6666667 .6862745 19 16 1 0 1 0 8 4 S74 4 CI16 index_map_offset0 0 1 dCC
Z20 14 3 0 0 2 748 178 0 0 0 0 0 0 0 0 0 0 0 0 0 0 0 0 0 80 2 11 871 872 8004 0
 0 0 0 3 5 0 0 0 FFTFFFFFFFFFFF2 3 83 1 12 7830.64 84 255 8 13 Kg/Cu M 79 16 872
 SDL/TYSA_DENSITY1 0 
