**ABCDEFGHIJKLMNOPQRSTUVWXYZabcdefghijklmnopqrstuvwxyz**************************
**PARASOLID !"#$%&'()*+,-./:;<=>?@[\]^_`{|}~0123456789**************************
**PART1;
MC=x64/Windows NT;
MC_MODEL=genuineintel family 6 model 10 stepping 5, intel(r) xeon(r) cpu           w3550  @ 3.07ghz;
MC_ID=pc1401;
OS=windows nt (x64);
OS_RELEASE=6.1 windows 7 professional (build 7601) service pack 1;
FRU=mdc_ugii_v7.0_djl_can_vrh;
APPL=unigraphics;
SITE=unknown;
USER=huge;
FORMAT=text;
GUISE=transmit;
KEY=20-1_flange_b;
FILE=D:\Daten-Huge\PLM_Export\A_Internet_Modelle\Getriebe\20-x\20-1\20-1_flange_b.x_t;
DATE=26-aug-2016;
**PART2;
SCH=SCH_2701211_26105;
USFLD_SIZE=0;
**PART3;
**END_OF_HEADER*****************************************************************
T51 : TRANSMIT FILE created by modeller version 270121123 SCH_2701211_26105_1300
6200 0 12 30 CCCCCCCCCCCCCDI5 owner1040 0 CCCCCCCCCA13 boundary_mesh1006 0 A16 i
ndex_map_offset0 0 1 dA9 index_map82 0 A17 node_id_index_map82 0 A20 schema_embe
dding_map82 0 A5 child12 0 A14 lowest_node_id0 0 1 dZ1 615 2 3 0 0 0 0 1e3 1e-8
 0 0 0 1 0 1 1 4 5 6 7 8 9 10 0 0 0 0 0 0 0 81 255 1 2 615 11 1 12 0 0 0 13 70 1
1 CI9 list_type0 0 1 uI10 notransmit0 0 1 lCCCDCCDI12 finger_index0 0 1 dI12 fin
ger_block1012 0 CZ3 0 4 T1 0 0 6 20 1 14 14 13 255 4 3 0 1 0 15 0 0 16 0 54 255
 5 320 0 17 18 0 0 +0 0 .0052 0 0 1 .00815 1e-4 1 0 0 31 255 6 483 0 19 20 0 0 +
.00519615242270663 -.003 0 0 0 -1 -1 0 0 .0011 29 255 7 474 0 10 21 0 .007058107
04084317 -.004075 .0051 19 8 CCCCCCCA5 owner12 0 Z8 88 0 1 16 0 22 V0 16 255 9 3
01 23 ?24 0 25 26 27 25 1 18 255 10 472 0 28 0 29 7 ?1 17 255 28 0 30 28 28 10 3
1 32 0 31 -18 29 411 0 33 10 34 21 ?1 17 33 0 35 33 33 29 36 37 0 36 -18 34 336
 0 38 29 0 39 ?1 29 21 413 0 29 39 7 -.00705810704084318 -.004075 .0051 29 39 33
7 0 34 0 21 -991290837569247e-31 .00815 .0051 17 38 0 40 41 31 34 42 27 0 43 +15
 255 40 302 0 44 45 46 17 41 0 40 24 38 34 43 47 0 48 +17 31 0 40 38 44 10 28 32
 0 42 +17 42 0 49 50 48 10 38 27 0 44 -16 27 473 51 ?38 25 52 26 25 9 1 17 43 0
 53 43 43 34 41 47 0 41 -15 53 380 0 43 54 0 16 47 357 55 ?41 56 57 58 0 0 1 81
 1 55 400 59 47 0 0 60 61 62 16 56 356 63 ?64 65 47 66 0 0 1 16 57 429 67 ?68 47
 69 20 0 0 1 31 58 391 0 47 70 66 0 +0 .006 .0051 0 0 -1 -1 0 0 .00215 31 70 465
 0 69 71 58 0 +-.00519615242270663 -.003 .0035 0 0 -1 .5 -.866025403784439 0 .00
11 31 66 390 0 56 58 72 0 +0 .006 .0035 0 0 -1 -1 0 0 .00215 31 72 389 0 65 66 7
3 0 +0 .006 .0035 0 0 -1 -1 0 0 .0011 16 65 355 74 ?75 76 56 72 0 0 1 31 73 168
 0 77 72 78 0 +0 0 .0051 0 0 -1 -1 0 0 .0035 16 77 90 79 ?80 81 76 73 0 0 1 31 7
8 170 0 81 73 82 0 +0 0 .0071 0 0 -1 -1 0 0 .00825 16 81 97 83 ?84 85 77 78 0 0
 1 31 82 171 0 85 78 86 0 +0 0 .0073 0 0 -1 -1 0 0 .00830358983848622 16 85 102
 87 ?88 89 81 82 0 0 1 31 86 172 0 89 82 90 0 +0 0 .0073 0 0 -1 -1 0 0 .009 16 8
9 107 91 ?92 93 85 86 0 0 1 31 90 173 0 93 86 94 0 +0 0 .0079 0 0 -1 -1 0 0 .009
 16 93 112 95 ?96 97 89 90 0 0 1 31 94 174 0 97 90 98 0 +0 0 .0079 0 0 -1 -1 0 0
 .0085 16 97 117 99 ?100 101 93 94 0 0 1 31 98 175 0 101 94 102 0 +0 0 .0099 0 0
 -1 -1 0 0 .0085 16 101 122 103 ?104 105 97 98 0 0 1 31 102 176 0 105 98 106 0 +
0 0 .0099 0 0 -1 -1 0 0 .009 16 105 127 107 ?108 109 101 102 0 0 1 31 106 177 0
 109 102 110 0 +0 0 .0105 0 0 -1 -1 0 0 .009 16 109 132 111 ?112 113 105 106 0 0
 1 31 110 178 0 113 106 114 0 +0 0 .0105 0 0 -1 -1 0 0 .01 16 113 137 115 ?116 1
17 109 110 0 0 1 31 114 179 0 117 110 118 0 +0 0 0 0 0 -1 -1 0 0 .01 16 117 142
 119 ?120 121 113 114 0 0 1 31 118 180 0 121 114 122 0 +0 0 0 0 0 -1 -1 0 0 .003
5 16 121 147 123 ?124 52 117 118 0 0 1 31 122 298 0 52 118 26 0 -0 0 .0052 0 0 1
 1 0 0 .00825 16 52 295 125 ?126 27 121 122 0 0 1 31 26 304 0 9 122 127 0 +0 0 .
0051 0 0 1 1 0 0 .00815 31 127 346 0 76 26 20 0 +0 .006 0 0 0 -1 -1 0 0 .0011 16
 76 353 60 ?128 77 65 127 0 0 1 31 20 422 0 57 127 6 0 +-.00519615242270663 -.00
3 0 0 0 -1 -1 0 0 .0011 81 1 60 399 59 76 0 0 63 55 129 17 128 0 130 128 128 0 1
31 76 0 0 +15 130 371 0 128 132 133 17 131 0 134 131 131 0 128 76 0 0 -15 134 34
5 0 131 135 136 14 255 135 150 137 ?138 15 139 4 140 +0 0 138 15 22 15 136 258 0
 120 135 141 17 120 0 136 120 120 0 142 117 0 0 +15 141 149 0 143 135 0 17 143 0
 141 143 143 0 124 121 0 0 -17 124 0 144 124 124 0 143 121 0 0 +15 144 259 0 124
 15 145 14 15 153 146 ?135 0 144 4 18 +0 0 135 0 22 15 145 152 0 147 15 0 17 147
 0 145 147 147 0 80 77 0 0 -17 80 0 46 80 80 0 147 77 0 0 +15 46 247 0 80 45 0 1
4 45 95 148 ?17 149 40 4 150 +0 0 17 149 22 81 1 148 594 151 45 152 0 153 154 15
5 14 17 313 154 ?132 45 49 4 5 -0 0 132 45 22 14 149 100 153 ?45 156 157 4 158 +
0 0 45 156 22 50 255 150 155 0 45 159 158 0 +-.00825 0 .0051 0 0 1 1 0 0 13 22 8
7 0 0 0 0 0 0 8 15 51 255 159 383 0 54 160 150 0 +0 .006 .0051 0 0 -1 .00215 -1
 0 0 51 158 156 0 149 150 161 0 -0 0 0 0 0 -1 .00825 -1 0 0 52 255 161 157 0 156
 158 162 0 -0 0 .0073 0 0 1 .00830358983848622 .2588190451025135 .96592582628907
 1 0 0 14 156 105 163 ?149 164 165 4 161 +0 0 149 164 22 50 162 158 0 164 161 16
6 0 +-.009 0 .0073 0 0 1 1 0 0 14 164 110 167 ?156 168 169 4 162 +0 0 156 168 22
 51 166 159 0 168 162 170 0 -0 0 0 0 0 -1 .009 -1 0 0 14 168 115 171 ?164 172 17
3 4 166 +0 0 164 172 22 50 170 160 0 172 166 174 0 +-.0085 0 .0079 0 0 -1 -1 0 0
 14 172 120 175 ?168 176 177 4 170 +0 0 168 176 22 51 174 161 0 176 170 178 0 -0
 0 0 0 0 -1 .0085 -1 0 0 14 176 125 179 ?172 180 181 4 174 +0 0 172 180 22 50 17
8 162 0 180 174 182 0 +-.009 0 .0099 0 0 1 1 0 0 14 180 130 183 ?176 184 185 4 1
78 +0 0 176 184 22 51 182 163 0 184 178 186 0 -0 0 0 0 0 -1 .009 -1 0 0 14 184 1
35 187 ?180 188 189 4 182 +0 0 180 188 22 50 186 164 0 188 182 190 0 +-.01 0 .01
05 0 0 1 1 0 0 14 188 140 191 ?184 138 192 4 186 +0 0 184 138 22 51 190 165 0 13
8 186 140 0 +0 0 0 0 0 -1 .01 -1 0 0 14 138 145 193 ?188 135 194 4 190 +0 0 188
 135 22 50 140 166 0 135 190 18 0 +-.0035 0 0 0 0 -1 -1 0 0 51 18 167 0 15 140 5
 0 -0 0 0 0 0 -1 .0035 -1 0 0 81 1 193 574 151 138 195 0 137 191 196 15 194 257
 0 116 138 197 17 116 0 194 116 116 0 198 113 0 0 +15 197 144 0 142 138 0 17 142
 0 197 142 142 0 120 117 0 0 -17 198 0 199 198 198 0 116 113 0 0 -15 199 139 0 1
98 188 0 80 255 1 151 0 200 8001 0 0 0 0 3 5 0 0 0 FFFFTFTFFFFFFF2 81 1 195 573
 201 138 202 193 203 204 205 81 1 137 572 151 135 203 0 146 193 206 81 1 191 576
 151 188 204 0 193 187 207 83 255 3 196 .6 .6 .6 81 1 204 575 201 188 208 191 19
5 209 210 81 1 187 578 151 184 209 0 191 183 211 83 3 207 .6 .6 .6 81 1 209 577
 201 184 212 187 204 213 214 81 1 183 580 151 180 213 0 187 179 215 83 3 211 .6
 .6 .6 81 1 213 579 201 180 216 183 209 217 218 81 1 179 582 151 176 217 0 183 1
75 219 83 3 215 .6 .6 .6 81 1 217 581 201 176 220 179 213 221 222 81 1 175 584 1
51 172 221 0 179 171 223 83 3 219 .6 .6 .6 81 1 221 583 201 172 224 175 217 225
 226 81 1 171 586 151 168 225 0 175 167 227 83 3 223 .6 .6 .6 81 1 225 585 201 1
68 228 171 221 229 230 81 1 167 588 151 164 229 0 171 163 231 83 3 227 .6 .6 .6
 81 1 229 587 201 164 232 167 225 233 234 81 1 163 590 151 156 233 0 167 153 235
 83 3 231 .6 .6 .6 81 1 233 589 201 156 236 163 229 237 238 81 1 153 592 151 149
 237 0 163 148 239 83 3 235 .6 .6 .6 81 1 237 591 201 149 240 153 233 152 241 83
 3 239 .6 .6 .6 80 1 201 242 243 8015 0 0 0 0 3 5 0 0 0 FFFFTFFFFFFFFF2 81 1 240
 329 59 149 0 237 125 74 244 81 1 152 593 201 45 245 148 237 246 247 83 1 241 0
 81 1 245 549 59 45 0 152 248 249 250 81 1 246 595 201 17 251 154 152 252 253 83
 1 247 0 81 1 251 556 59 17 0 246 254 0 255 81 1 154 596 151 17 246 0 148 256 25
7 81 1 252 597 201 132 61 256 246 258 259 83 1 253 0 14 132 369 256 ?260 17 130
 4 261 -0 0 260 17 22 81 1 61 404 59 132 0 252 55 262 263 81 1 256 598 151 132 2
52 0 154 264 265 81 1 258 599 201 260 262 264 252 266 267 83 1 259 0 14 260 373
 264 ?54 132 268 4 160 -0 0 54 132 22 81 1 262 405 59 260 0 258 61 269 270 81 1
 264 600 151 260 258 0 256 271 272 81 1 266 601 201 54 269 271 258 273 274 83 1
 267 0 14 54 377 271 ?275 260 276 4 159 -0 0 275 260 22 81 1 269 406 59 54 0 266
 262 277 278 81 1 271 602 151 54 266 0 264 279 280 81 1 273 603 201 275 281 279
 266 282 283 83 1 274 0 14 275 445 279 ?284 54 285 4 286 -0 0 284 54 22 81 1 281
 553 59 275 0 273 287 288 289 81 1 279 604 151 275 273 0 271 290 291 81 1 282 60
5 201 284 287 290 273 292 293 83 1 283 0 14 284 449 290 ?294 275 295 4 296 -0 0
 294 275 22 81 1 287 552 59 284 0 282 297 281 298 81 1 290 606 151 284 282 0 279
 299 300 81 1 292 607 201 294 297 299 282 301 302 83 1 293 0 14 294 453 299 ?303
 284 304 4 305 -0 0 303 284 22 81 1 297 551 59 294 0 292 249 287 306 81 1 299 60
8 151 294 292 0 290 307 308 81 1 301 609 201 303 254 307 292 309 310 83 1 302 0
 14 303 506 307 ?311 294 312 4 313 -0 0 311 294 22 81 1 254 555 59 303 0 301 288
 251 314 81 1 307 610 151 303 301 0 299 315 316 81 1 309 611 201 311 249 315 301
 317 318 83 1 310 0 14 311 510 315 ?319 303 320 4 321 -0 0 319 303 22 81 1 249 5
50 59 311 0 309 245 297 322 81 1 315 612 151 311 309 0 307 323 324 81 1 317 613
 201 319 288 323 309 0 325 83 1 318 0 14 319 514 323 ?0 311 326 4 327 -0 0 0 311
 22 81 1 288 554 59 319 0 317 281 254 328 81 1 323 614 151 319 317 0 315 0 329 8
3 1 325 0 83 3 329 .6 .6 .6 80 1 59 330 331 9000 1 1 1 1 1 1 1 1 0 FFFFTFTFFFFFF
F3 84 255 32 328 e92ad7c9bfcff59976771e23e5f40ca479 255 15 331 UGS/ObjectState15
 326 516 0 332 319 30 51 327 520 0 319 321 286 0 +.00519615242270663 -.003 .0051
 0 0 -1 .00215 .5 .866025403784438 0 50 321 521 0 311 313 327 0 +.00519615242270
663 -.003 .0035 0 0 -1 .5 .866025403784438 0 51 286 461 0 275 327 296 0 +-.00519
615242270663 -.003 -.01022096070061584 0 0 -1 .0011 .5 -.866025403784439 0 50 29
6 460 0 284 286 305 0 +-.00519615242270663 -.003 .0035 0 0 -1 .5 -.8660254037844
39 0 51 305 459 0 294 296 261 0 +-.00519615242270663 -.003 .0051 0 0 -1 .00215 .
5 -.866025403784439 0 51 261 385 0 132 305 160 0 +0 .006 -.01022096070061584 0 0
 -1 .0011 -1 0 0 50 160 384 0 260 261 159 0 +0 .006 .0035 0 0 -1 -1 0 0 51 313 5
22 0 303 0 321 0 +.00519615242270663 -.003 -.01022096070061584 0 0 -1 .0011 .5 .
866025403784438 0 17 332 0 326 332 332 0 333 334 0 0 +15 30 517 0 28 319 0 17 33
3 0 335 333 333 0 332 334 0 0 -16 334 493 336 ?332 337 32 338 0 0 1 81 1 336 542
 59 334 0 0 67 339 340 16 337 492 339 ?341 19 334 342 0 0 1 16 32 494 343 ?31 33
4 0 344 0 0 1 31 338 527 0 334 344 342 0 +.00519615242270663 -.003 .0035 0 0 -1
 .5 .866025403784438 0 .00215 31 344 528 0 32 0 338 0 +.00519615242270663 -.003
 .0051 0 0 -1 .5 .866025403784438 0 .00215 31 342 526 0 337 338 345 0 +.00519615
242270663 -.003 .0035 0 0 -1 .5 .866025403784438 0 .0011 31 345 467 0 37 342 71
 0 +-.00519615242270663 -.003 .0051 0 0 -1 .5 -.866025403784439 0 .00215 16 37 4
33 277 ?36 346 19 345 0 0 1 31 71 466 0 346 345 70 0 +-.00519615242270663 -.003
 .0035 0 0 -1 .5 -.866025403784439 0 .00215 16 346 432 347 ?348 69 37 71 0 0 1 8
1 1 347 538 59 346 0 0 277 343 349 17 348 0 304 348 348 0 350 346 0 0 +16 69 431
 351 ?352 57 346 70 0 0 1 81 1 351 544 59 69 0 0 339 23 353 17 352 0 295 352 352
 0 354 69 0 0 +15 295 451 0 352 284 355 17 354 0 356 354 354 0 352 69 0 0 -15 35
6 448 0 354 275 0 15 355 452 0 350 284 0 17 350 0 355 350 350 0 348 346 0 0 -81
 1 339 543 59 337 0 0 336 351 357 81 1 23 545 59 9 0 0 351 358 359 84 32 353 42b
9bc2ad4c3e9acb8496bb17d4aa21b81 1 358 546 59 25 0 0 23 51 360 84 32 359 d1287ab9
008deb3eb7741bb028a44a5716 25 412 358 ?44 9 27 26 9 27 1 81 1 51 547 59 27 0 0 3
58 248 361 84 32 360 f1a6e76912102b56b95f3c19ecc734e481 1 248 548 59 135 0 203 5
1 245 362 84 32 361 5d64dab95421b41104d65b782e2a8fbc81 1 203 571 201 135 248 137
 363 195 364 84 32 362 3aa5561f5ca57da1f00f6230139ec8ba81 1 363 569 201 15 365 1
46 0 203 366 83 1 364 0 81 1 365 280 59 15 0 363 123 212 367 81 1 146 570 151 15
 363 0 0 137 368 83 1 366 0 83 3 368 .6 .6 .6 81 1 123 279 59 121 0 0 79 365 369
 81 1 212 281 59 184 0 209 365 228 370 84 32 367 6c229a17a778ddf8442b9809131570c
081 1 228 282 59 168 0 225 212 216 371 84 32 370 3360f9e4cc6b477373404f879ec3e07
981 1 216 284 59 180 0 213 228 232 372 84 32 371 d4f044f1fc182c05309a067d658c5b5
e81 1 232 285 59 164 0 229 216 202 373 84 32 372 fc0876ae9ed9888cfaab5d7a37b5ded
181 1 202 286 59 138 0 195 232 220 374 84 32 373 f61e449a29d25bc45147aa7c1b8736b
881 1 220 287 59 176 0 217 202 236 375 84 32 374 cc71552a8b1aaf60a777a1f56630e1c
881 1 236 288 59 156 0 233 220 208 376 84 32 375 ce7993660a11ef21ae437c3cc8da8c1
281 1 208 289 59 188 0 204 236 224 377 84 32 376 7eeb14effc6b598cbf80e91db7e6c2a
381 1 224 290 59 172 0 221 208 125 378 84 32 377 096d9f5189a44041ffbbdbf4b003fc9
281 1 125 327 59 52 0 0 224 240 379 84 32 378 56e4728659cb4a18286aefc0100c4b5a84
 32 379 98962f09d9413d7ab3a5596ee21534fa81 1 79 278 59 77 0 0 83 123 380 84 32 3
69 58fa24ee58c862903532a360bbfe52cb81 1 83 276 59 81 0 0 99 79 381 84 32 380 646
89ccf1a10c5fe15bad22908c9359d81 1 99 275 59 97 0 0 115 83 382 84 32 381 d375b6c7
51fbd684321a07a304e5f70881 1 115 274 59 113 0 0 87 99 383 84 32 382 536b503d6d73
b01bb5e8431063e8d75181 1 87 273 59 85 0 0 103 115 384 84 32 383 197039c9dbcac010
a50b85ee568ec18581 1 103 272 59 101 0 0 119 87 385 84 32 384 f84715746d511463325
e42882749f50881 1 119 271 59 117 0 0 91 103 386 84 32 385 662bc97d60e929e9a163c0
a4641ae30081 1 91 270 59 89 0 0 107 119 387 84 32 386 9720427cc6f2705f70f85d66a1
da1c7f81 1 107 269 59 105 0 0 95 91 388 84 32 387 94356d8c623415d0294f6e2e4caa20
cc81 1 95 268 59 93 0 0 111 107 389 84 32 388 44114548da4f6d4babb02346d6cc1a6381
 1 111 267 59 109 0 0 0 95 390 84 32 389 a033e137c30b80af8d1e16a246fd835684 32 3
90 e685f897c4578a7429375efa5ffeb9ab17 44 0 40 31 36 10 50 25 0 0 +17 36 0 40 44
 24 29 33 37 0 50 +17 50 0 49 48 42 29 44 25 0 24 -15 49 314 0 48 17 391 17 48 0
 49 42 50 34 24 9 0 0 -17 24 0 40 36 41 29 48 9 0 0 +15 391 315 0 392 17 0 17 39
2 0 391 392 392 0 126 52 0 0 -17 126 0 157 126 126 0 392 52 0 0 +15 157 296 0 12
6 149 393 15 393 99 0 394 149 0 17 394 0 393 394 394 0 84 81 0 0 -17 84 0 165 84
 84 0 394 81 0 0 +15 165 249 0 84 156 395 15 395 104 0 396 156 0 17 396 0 395 39
6 396 0 88 85 0 0 -17 88 0 169 88 88 0 396 85 0 0 +15 169 250 0 88 164 397 15 39
7 109 0 398 164 0 17 398 0 397 398 398 0 92 89 0 0 -17 92 0 173 92 92 0 398 89 0
 0 +15 173 251 0 92 168 399 15 399 114 0 400 168 0 17 400 0 399 400 400 0 96 93
 0 0 -17 96 0 177 96 96 0 400 93 0 0 +15 177 252 0 96 172 401 15 401 119 0 402 1
72 0 17 402 0 401 402 402 0 100 97 0 0 -17 100 0 181 100 100 0 402 97 0 0 +15 18
1 253 0 100 176 403 15 403 124 0 404 176 0 17 404 0 403 404 404 0 104 101 0 0 -1
7 104 0 185 104 104 0 404 101 0 0 +15 185 254 0 104 180 405 15 405 129 0 406 180
 0 17 406 0 405 406 406 0 108 105 0 0 -17 108 0 189 108 108 0 406 105 0 0 +15 18
9 255 0 108 184 407 15 407 134 0 408 184 0 17 408 0 407 408 408 0 112 109 0 0 -1
7 112 0 192 112 112 0 408 109 0 0 +15 192 256 0 112 188 199 84 32 357 d56d529020
ce38c1786479488bfdc9ec15 304 455 0 348 294 35 15 35 456 0 33 294 0 81 1 277 537
 59 37 0 0 269 347 409 81 1 343 539 59 32 0 0 347 410 411 84 32 349 35b45b1eb700
658bdde322b668445b4d81 1 410 540 59 19 0 0 343 67 412 84 32 411 020a248931c4bff9
ee5a68decbd5a2cc16 19 490 410 ?413 37 337 6 0 0 1 81 1 67 541 59 57 0 0 410 336
 414 84 32 412 14e963b4ed30ad4d553342d8f754810384 32 414 015b9ed41234b77a2ae9904
fa17f0e9317 413 0 312 413 413 0 415 19 0 0 +15 312 508 0 413 303 416 17 415 0 13
9 415 415 0 413 19 0 0 -15 139 482 0 415 135 417 15 417 421 0 418 135 134 17 418
 0 417 418 418 0 68 57 0 0 -17 68 0 285 68 68 0 418 57 0 0 +15 285 447 0 68 275
 356 15 416 509 0 419 303 0 17 419 0 416 419 419 0 341 337 0 0 -17 341 0 320 341
 341 0 419 337 0 0 +15 320 512 0 341 311 335 15 335 513 0 333 311 0 84 32 409 b8
2414376b9a9d70e918a589908b6ca184 32 340 7f9a6486b7f244c62f806dd89233a2bd83 3 324
 .6 .6 .6 84 32 322 4c4ca7635dbd91d7e41d30513ed3327983 3 316 .6 .6 .6 84 32 314
 1f4c208c1a628bc253381f1ed87035e083 3 308 .6 .6 .6 84 32 306 6fedf960e34baa52bf0
94a34bbcd17d583 3 300 .6 .6 .6 84 32 298 c1764dcb6c5f87b11bb18d632909899183 3 29
1 .6 .6 .6 84 32 289 59fbb4ef2b320f9fac6acba582cd0ac783 3 280 .6 .6 .6 84 32 278
 c2b7bed63ce818fea57d018453aba01415 276 379 0 64 54 53 17 64 0 276 64 64 0 420 5
6 0 0 +17 420 0 421 420 420 0 64 56 0 0 -15 421 376 0 420 260 0 83 3 272 .6 .6 .
6 84 32 270 24ab8aa1d8a013f42c78ea69ceaba68a15 268 375 0 75 260 421 17 75 0 268
 75 75 0 422 65 0 0 +17 422 0 133 422 422 0 75 65 0 0 -15 133 372 0 422 132 0 83
 3 265 .6 .6 .6 84 32 263 60013afd90066e6609ecf8c3fdb9852e83 3 257 .6 .6 .6 84 3
2 255 eaaf0ceb7e86b5b5b77a2406690ed17f84 32 250 c9d044a35f080b31755240d7f1c3b2fd
81 1 74 397 59 65 0 0 240 63 423 84 32 244 9c6b8fe254da8ba83fcf772f18890cef81 1
 63 398 59 56 0 0 74 60 424 84 32 423 2de72cc9a8a389f6b949ac735fd4831984 32 424
 ef1b084f40671e4e004ac7c0426af11379 21 243 SDL/TYSA_TRANSLUCENCY83 1 238 0 83 1
 234 0 83 1 230 0 83 1 226 0 83 1 222 0 83 1 218 0 83 1 214 0 83 1 210 0 83 3 20
6 .6 .6 .6 83 1 205 0 79 15 200 SDL/TYSA_COLOUR83 3 155 .6 .6 .6 84 32 129 d7af8
085eb1247e083eab14d1d36a9ba84 32 62 da14ddfcf5cddcb4d209af2435c90b9a19 16 1 0 1
 0 8 4 S0 74 4 CI16 index_map_offset0 0 1 dCCZ20 14 6 0 0 251 425 12 317 323 2 0
 0 0 0 0 0 0 0 0 0 0 0 0 0 81 2 425 533 426 1 0 12 0 0 427 428 81 1 12 567 429 1
 425 2 0 0 430 80 1 429 431 432 9000 0 0 0 0 3 5 0 0 0 FFTFFFFFFFFFFF1 82 255 1
 430 -1 79 19 432 UG2/PMARK_ATTRIBUTE80 2 426 433 434 8004 0 0 0 0 3 5 0 0 0 FFT
FFFFFFFFFFF2 3 83 1 427 .001 84 8 428 Kg/Cu M 79 16 434 SDL/TYSA_DENSITY80 1 11
 435 436 9000 0 0 0 0 3 5 0 0 0 FFTFFFFFFFFFFF1 82 1 13 87 79 24 436 UG2/BODY_CO
LOR_ATTRIBUTE1 0 
